solid Untitled-54b6c332
facet normal 0.8069145612100951 -0.5906681732640753 0.0
  outer loop
    vertex 3.916059014467632 9.866223383525876 0.0
    vertex 3.469069955019392 9.25558953342822 1.9999999999999998
    vertex 3.469069955019392 9.25558953342822 0.0
  endloop
endfacet
facet normal 0.8069145612100951 -0.5906681732640753 0.0
  outer loop
    vertex 3.469069955019392 9.25558953342822 1.9999999999999998
    vertex 3.916059014467632 9.866223383525876 0.0
    vertex 3.916059014467632 9.866223383525876 1.9999999999999998
  endloop
endfacet
facet normal 0.6610226044732171 -0.7503659882853464 0.0
  outer loop
    vertex 4.484019753603377 10.36655907688525 1.9999999999999998
    vertex 3.916059014467632 9.866223383525876 0.0
    vertex 4.484019753603377 10.36655907688525 0.0
  endloop
endfacet
facet normal 0.6610226044732171 -0.7503659882853464 0.0
  outer loop
    vertex 3.916059014467632 9.866223383525876 0.0
    vertex 4.484019753603377 10.36655907688525 1.9999999999999998
    vertex 3.916059014467632 9.866223383525876 1.9999999999999998
  endloop
endfacet
facet normal 0.48430058688063127 -0.8749016753596235 0.0
  outer loop
    vertex 5.14610624041978 10.733056116680174 1.9999999999999998
    vertex 4.484019753603377 10.36655907688525 0.0
    vertex 5.14610624041978 10.733056116680174 0.0
  endloop
endfacet
facet normal 0.48430058688063127 -0.8749016753596235 0.0
  outer loop
    vertex 4.484019753603377 10.36655907688525 0.0
    vertex 5.14610624041978 10.733056116680174 1.9999999999999998
    vertex 4.484019753603377 10.36655907688525 1.9999999999999998
  endloop
endfacet
facet normal 0.28483123434568286 -0.9585776796593559 0.0
  outer loop
    vertex 5.871598479418196 10.94862847385791 1.9999999999999998
    vertex 5.14610624041978 10.733056116680174 0.0
    vertex 5.871598479418196 10.94862847385791 0.0
  endloop
endfacet
facet normal 0.28483123434568286 -0.9585776796593559 0.0
  outer loop
    vertex 5.14610624041978 10.733056116680174 0.0
    vertex 5.871598479418196 10.94862847385791 1.9999999999999998
    vertex 5.14610624041978 10.733056116680174 1.9999999999999998
  endloop
endfacet
facet normal 0.07239601481457077 -0.9973759657415896 0.0
  outer loop
    vertex 6.626323935655987 11.00341134128955 1.9999999999999998
    vertex 5.871598479418196 10.94862847385791 0.0
    vertex 6.626323935655987 11.00341134128955 0.0
  endloop
endfacet
facet normal 0.07239601481457077 -0.9973759657415896 0.0
  outer loop
    vertex 5.871598479418196 10.94862847385791 0.0
    vertex 6.626323935655987 11.00341134128955 1.9999999999999998
    vertex 5.871598479418196 10.94862847385791 1.9999999999999998
  endloop
endfacet
facet normal -0.1439379163441288 -0.9895867199182246 0.0
  outer loop
    vertex 7.375323769716657 10.894467402080563 1.9999999999999998
    vertex 6.626323935655987 11.00341134128955 0.0
    vertex 7.375323769716657 10.894467402080563 0.0
  endloop
endfacet
facet normal -0.1439379163441288 -0.9895867199182246 0.0
  outer loop
    vertex 6.626323935655987 11.00341134128955 0.0
    vertex 7.375323769716657 10.894467402080563 1.9999999999999998
    vertex 6.626323935655987 11.00341134128955 1.9999999999999998
  endloop
endfacet
facet normal -0.353305045963535 -0.9355081744681362 0.0
  outer loop
    vertex 8.08331238952104 10.62708764133838 1.9999999999999998
    vertex 7.375323769716657 10.894467402080563 0.0
    vertex 8.08331238952104 10.62708764133838 0.0
  endloop
endfacet
facet normal -0.353305045963535 -0.9355081744681362 0.0
  outer loop
    vertex 7.375323769716657 10.894467402080563 0.0
    vertex 8.08331238952104 10.62708764133838 1.9999999999999998
    vertex 7.375323769716657 10.894467402080563 1.9999999999999998
  endloop
endfacet
facet normal -0.5461881930255708 -0.8376624963548638 0.0
  outer loop
    vertex 8.717398163942729 10.213639307598145 1.9999999999999998
    vertex 8.08331238952104 10.62708764133838 0.0
    vertex 8.717398163942729 10.213639307598145 0.0
  endloop
endfacet
facet normal -0.5461881930255708 -0.8376624963548638 0.0
  outer loop
    vertex 8.08331238952104 10.62708764133838 0.0
    vertex 8.717398163942729 10.213639307598145 1.9999999999999998
    vertex 8.08331238952104 10.62708764133838 1.9999999999999998
  endloop
endfacet
facet normal -0.7134979682043837 -0.7006572980910256 0.0
  outer loop
    vertex 8.717398163942729 10.213639307598145 1.9999999999999998
    vertex 9.24768829074327 9.673630762676268 0.0
    vertex 9.24768829074327 9.673630762676268 1.9999999999999998
  endloop
endfacet
facet normal -0.7134979682043837 -0.7006572980910256 0.0
  outer loop
    vertex 9.24768829074327 9.673630762676268 0.0
    vertex 8.717398163942729 10.213639307598145 1.9999999999999998
    vertex 8.717398163942729 10.213639307598145 0.0
  endloop
endfacet
facet normal -0.8473903735292809 -0.5309703898052186 0.0
  outer loop
    vertex 9.24768829074327 9.673630762676268 1.9999999999999998
    vertex 9.649554726747908 9.032280970195798 0.0
    vertex 9.649554726747908 9.032280970195798 1.9999999999999998
  endloop
endfacet
facet normal -0.8473903735292809 -0.5309703898052186 0.0
  outer loop
    vertex 9.649554726747908 9.032280970195798 0.0
    vertex 9.24768829074327 9.673630762676268 1.9999999999999998
    vertex 9.24768829074327 9.673630762676268 0.0
  endloop
endfacet
facet normal -0.9417914996329638 -0.3361975181631968 0.0
  outer loop
    vertex 9.649554726747908 9.032280970195798 1.9999999999999998
    vertex 9.903962371019757 8.319607782939938 0.0
    vertex 9.903962371019757 8.319607782939938 1.9999999999999998
  endloop
endfacet
facet normal -0.9417914996329638 -0.3361975181631968 0.0
  outer loop
    vertex 9.903962371019757 8.319607782939938 0.0
    vertex 9.649554726747908 9.032280970195798 1.9999999999999998
    vertex 9.649554726747908 9.032280970195798 0.0
  endloop
endfacet
facet normal -0.9920156260206423 -0.1261150178641444 0.0
  outer loop
    vertex 9.903962371019757 8.319607782939938 1.9999999999999998
    vertex 9.999400612978375 7.568894434551269 0.0
    vertex 9.999400612978375 7.568894434551269 1.9999999999999998
  endloop
endfacet
facet normal -0.9920156260206423 -0.1261150178641444 0.0
  outer loop
    vertex 9.999400612978375 7.568894434551269 0.0
    vertex 9.903962371019757 8.319607782939938 1.9999999999999998
    vertex 9.903962371019757 8.319607782939938 0.0
  endloop
endfacet
facet normal -0.9959368010760666 0.09005491803544931 0.0
  outer loop
    vertex 9.999400612978375 7.568894434551269 1.9999999999999998
    vertex 9.931240317491927 6.815094996074706 0.0
    vertex 9.931240317491927 6.815094996074706 1.9999999999999998
  endloop
endfacet
facet normal -0.9959368010760666 0.09005491803544931 0.0
  outer loop
    vertex 9.931240317491927 6.815094996074706 0.0
    vertex 9.999400612978375 7.568894434551269 1.9999999999999998
    vertex 9.999400612978375 7.568894434551269 0.0
  endloop
endfacet
facet normal -0.9533203431484507 0.30196079768625633 0.0
  outer loop
    vertex 9.931240317491927 6.815094996074706 1.9999999999999998
    vertex 9.702697989611067 6.093564081768064 0.0
    vertex 9.702697989611067 6.093564081768064 1.9999999999999998
  endloop
endfacet
facet normal -0.9533203431484507 0.30196079768625633 0.0
  outer loop
    vertex 9.702697989611067 6.093564081768064 0.0
    vertex 9.931240317491927 6.815094996074706 1.9999999999999998
    vertex 9.931240317491927 6.815094996074706 0.0
  endloop
endfacet
facet normal -0.8660248492076991 0.5000009605538593 0.0
  outer loop
    vertex 9.702697989611067 6.093564081768064 1.9999999999999998
    vertex 9.324280020861066 5.438126612285641 0.0
    vertex 9.324280020861066 5.438126612285641 1.9999999999999998
  endloop
endfacet
facet normal -0.8660248492076991 0.5000009605538593 0.0
  outer loop
    vertex 9.324280020861066 5.438126612285641 0.0
    vertex 9.702697989611067 6.093564081768064 1.9999999999999998
    vertex 9.702697989611067 6.093564081768064 0.0
  endloop
endfacet
facet normal -0.7381661695402443 0.674618934025931 0.0
  outer loop
    vertex 9.324280020861066 5.438126612285641 1.9999999999999998
    vertex 8.81368732181016 4.879437494854003 0.0
    vertex 8.81368732181016 4.879437494854003 1.9999999999999998
  endloop
endfacet
facet normal -0.7381661695402443 0.674618934025931 0.0
  outer loop
    vertex 8.81368732181016 4.879437494854003 0.0
    vertex 9.324280020861066 5.438126612285641 1.9999999999999998
    vertex 9.324280020861066 5.438126612285641 0.0
  endloop
endfacet
facet normal -0.5759584411362096 0.8174789747045164 0.0
  outer loop
    vertex 8.194958207277692 4.443509150127438 1.9999999999999998
    vertex 8.81368732181016 4.879437494854003 0.0
    vertex 8.194958207277692 4.443509150127438 0.0
  endloop
endfacet
facet normal -0.5759584411362096 0.8174789747045164 0.0
  outer loop
    vertex 8.81368732181016 4.879437494854003 0.0
    vertex 8.194958207277692 4.443509150127438 1.9999999999999998
    vertex 8.81368732181016 4.879437494854003 1.9999999999999998
  endloop
endfacet
facet normal -0.3868817161583797 0.9221293497673454 0.0
  outer loop
    vertex 7.497042414812485 4.1506968027153315 1.9999999999999998
    vertex 8.194958207277692 4.443509150127438 0.0
    vertex 7.497042414812485 4.1506968027153315 0.0
  endloop
endfacet
facet normal -0.3868817161583797 0.9221293497673454 0.0
  outer loop
    vertex 8.194958207277692 4.443509150127438 0.0
    vertex 7.497042414812485 4.1506968027153315 1.9999999999999998
    vertex 8.194958207277692 4.443509150127438 1.9999999999999998
  endloop
endfacet
facet normal -0.17973994075369587 0.9837141625990031 0.0
  outer loop
    vertex 6.75264501300279 4.014683771709475 1.9999999999999998
    vertex 7.497042414812485 4.1506968027153315 0.0
    vertex 6.75264501300279 4.014683771709475 0.0
  endloop
endfacet
facet normal -0.17973994075369587 0.9837141625990031 0.0
  outer loop
    vertex 7.497042414812485 4.1506968027153315 0.0
    vertex 6.75264501300279 4.014683771709475 1.9999999999999998
    vertex 7.497042414812485 4.1506968027153315 1.9999999999999998
  endloop
endfacet
facet normal 0.036138309505895604 0.9993467979565734 0.0
  outer loop
    vertex 5.9962866279167315 4.042035151104005 1.9999999999999998
    vertex 6.75264501300279 4.014683771709475 0.0
    vertex 5.9962866279167315 4.042035151104005 0.0
  endloop
endfacet
facet normal 0.036138309505895604 0.9993467979565734 0.0
  outer loop
    vertex 6.75264501300279 4.014683771709475 0.0
    vertex 5.9962866279167315 4.042035151104005 1.9999999999999998
    vertex 6.75264501300279 4.014683771709475 1.9999999999999998
  endloop
endfacet
facet normal 0.2500373887669946 0.9682361820437112 0.0
  outer loop
    vertex 5.263482091097274 4.231274653057127 1.9999999999999998
    vertex 5.9962866279167315 4.042035151104005 0.0
    vertex 5.263482091097274 4.231274653057127 0.0
  endloop
endfacet
facet normal 0.2500373887669946 0.9682361820437112 0.0
  outer loop
    vertex 5.9962866279167315 4.042035151104005 0.0
    vertex 5.263482091097274 4.231274653057127 1.9999999999999998
    vertex 5.9962866279167315 4.042035151104005 1.9999999999999998
  endloop
endfacet
facet normal 0.45248338894720047 0.8917728313459973 0.0
  outer loop
    vertex 4.588441369203965 4.573788691143068 1.9999999999999998
    vertex 5.263482091097274 4.231274653057127 0.0
    vertex 4.588441369203965 4.573788691143068 0.0
  endloop
endfacet
facet normal 0.45248338894720047 0.8917728313459973 0.0
  outer loop
    vertex 5.263482091097274 4.231274653057127 0.0
    vertex 4.588441369203965 4.573788691143068 1.9999999999999998
    vertex 5.263482091097274 4.231274653057127 1.9999999999999998
  endloop
endfacet
facet normal 0.6335212933268505 0.7737252554372739 0.0
  outer loop
    vertex 4.002889153627788 5.053235102275879 1.9999999999999998
    vertex 4.588441369203965 4.573788691143068 0.0
    vertex 4.002889153627788 5.053235102275879 0.0
  endloop
endfacet
facet normal 0.6335212933268505 0.7737252554372739 0.0
  outer loop
    vertex 4.588441369203965 4.573788691143068 0.0
    vertex 4.002889153627788 5.053235102275879 1.9999999999999998
    vertex 4.588441369203965 4.573788691143068 1.9999999999999998
  endloop
endfacet
facet normal 0.7850382954629812 0.6194472331495049 0.0
  outer loop
    vertex 3.5340409251731972 5.647416163066891 0.0
    vertex 4.002889153627788 5.053235102275879 1.9999999999999998
    vertex 4.002889153627788 5.053235102275879 0.0
  endloop
endfacet
facet normal 0.7850382954629812 0.6194472331495049 0.0
  outer loop
    vertex 4.002889153627788 5.053235102275879 1.9999999999999998
    vertex 3.5340409251731972 5.647416163066891 0.0
    vertex 3.5340409251731972 5.647416163066891 1.9999999999999998
  endloop
endfacet
facet normal 0.8998916475209594 0.43611354338292846 0.0
  outer loop
    vertex 3.204058644441996 6.328312922100099 0.0
    vertex 3.5340409251731972 5.647416163066891 1.9999999999999998
    vertex 3.5340409251731972 5.647416163066891 0.0
  endloop
endfacet
facet normal 0.8998916475209594 0.43611354338292846 0.0
  outer loop
    vertex 3.5340409251731972 5.647416163066891 1.9999999999999998
    vertex 3.204058644441996 6.328312922100099 0.0
    vertex 3.204058644441996 6.328312922100099 1.9999999999999998
  endloop
endfacet
facet normal 0.9725684811497235 0.23261674375272354 0.0
  outer loop
    vertex 3.028004643587505 7.064393091777828 0.0
    vertex 3.204058644441996 6.328312922100099 1.9999999999999998
    vertex 3.204058644441996 6.328312922100099 0.0
  endloop
endfacet
facet normal 0.9725684811497235 0.23261674375272354 0.0
  outer loop
    vertex 3.204058644441996 6.328312922100099 1.9999999999999998
    vertex 3.028004643587505 7.064393091777828 0.0
    vertex 3.028004643587505 7.064393091777828 1.9999999999999998
  endloop
endfacet
facet normal 0.9998388190154552 0.017953717993210595 0.0
  outer loop
    vertex 3.014416215090193 7.821129847148922 0.0
    vertex 3.028004643587505 7.064393091777828 1.9999999999999998
    vertex 3.028004643587505 7.064393091777828 0.0
  endloop
endfacet
facet normal 0.9998388190154552 0.017953717993210595 0.0
  outer loop
    vertex 3.028004643587505 7.064393091777828 1.9999999999999998
    vertex 3.014416215090193 7.821129847148922 0.0
    vertex 3.014416215090193 7.821129847148922 1.9999999999999998
  endloop
endfacet
facet normal 0.9803571908902364 -0.19723026712400027 0.0
  outer loop
    vertex 3.163679597048198 8.56306176243213 0.0
    vertex 3.014416215090193 7.821129847148922 1.9999999999999998
    vertex 3.014416215090193 7.821129847148922 0.0
  endloop
endfacet
facet normal 0.9803571908902364 -0.19723026712400027 0.0
  outer loop
    vertex 3.014416215090193 7.821129847148922 1.9999999999999998
    vertex 3.163679597048198 8.56306176243213 0.0
    vertex 3.163679597048198 8.56306176243213 1.9999999999999998
  endloop
endfacet
facet normal 0.914984439558746 -0.40348912670029635 0.0
  outer loop
    vertex 3.469069955019392 9.25558953342822 0.0
    vertex 3.163679597048198 8.56306176243213 1.9999999999999998
    vertex 3.163679597048198 8.56306176243213 0.0
  endloop
endfacet
facet normal 0.914984439558746 -0.40348912670029635 0.0
  outer loop
    vertex 3.163679597048198 8.56306176243213 1.9999999999999998
    vertex 3.469069955019392 9.25558953342822 0.0
    vertex 3.469069955019392 9.25558953342822 1.9999999999999998
  endloop
endfacet
facet normal 0.9999999999937763 3.5281197558064507e-06 0.0
  outer loop
    vertex 1.3500981303733959 10.47897820530322 1.9999999999999998
    vertex 1.3501191112083575 4.532231379131345 7.0
    vertex 1.3501191112083575 4.532231379131345 1.9999999999999998
  endloop
endfacet
facet normal 0.9999999999937763 3.5281197558064507e-06 0.0
  outer loop
    vertex 1.3501191112083575 4.532231379131345 7.0
    vertex 1.3500981303733959 10.47897820530322 1.9999999999999998
    vertex 1.3500981303733959 10.47897820530322 7.0
  endloop
endfacet
facet normal 0.49999997392741824 0.8660254188374503 0.0
  outer loop
    vertex 1.3501191112083575 4.532231379131345 7.0
    vertex 6.499968287615218 1.5589647775688458 1.9999999999999998
    vertex 1.3501191112083575 4.532231379131345 1.9999999999999998
  endloop
endfacet
facet normal 0.49999997392741824 0.8660254188374503 0.0
  outer loop
    vertex 6.499968287615218 1.5589647775688458 1.9999999999999998
    vertex 1.3501191112083575 4.532231379131345 7.0
    vertex 6.499968287615218 1.5589647775688458 7.0
  endloop
endfacet
facet normal -0.49999800907580033 0.8660265532420098 0.0
  outer loop
    vertex 6.499968287615218 1.5589647775688458 7.0
    vertex 11.650009629396829 4.532326746562986 1.9999999999999998
    vertex 6.499968287615218 1.5589647775688458 1.9999999999999998
  endloop
endfacet
facet normal -0.49999800907580033 0.8660265532420098 0.0
  outer loop
    vertex 11.650009629396829 4.532326746562986 1.9999999999999998
    vertex 6.499968287615218 1.5589647775688458 7.0
    vertex 11.650009629396829 4.532326746562986 7.0
  endloop
endfacet
facet normal -0.9999999999070897 -1.3631616625030867e-05 0.0
  outer loop
    vertex 11.649928567079943 10.478966761211426 7.0
    vertex 11.650009629396829 4.532326746562986 1.9999999999999998
    vertex 11.650009629396829 4.532326746562986 7.0
  endloop
endfacet
facet normal -0.9999999999070897 -1.3631616625030867e-05 0.0
  outer loop
    vertex 11.650009629396829 4.532326746562986 1.9999999999999998
    vertex 11.649928567079943 10.478966761211426 7.0
    vertex 11.649928567079943 10.478966761211426 1.9999999999999998
  endloop
endfacet
facet normal -0.49999944071944047 -0.8660257266849795 0.0
  outer loop
    vertex 11.649928567079943 10.478966761211426 7.0
    vertex 6.500078675417342 13.452229548076659 1.9999999999999998
    vertex 11.649928567079943 10.478966761211426 1.9999999999999998
  endloop
endfacet
facet normal -0.49999944071944047 -0.8660257266849795 0.0
  outer loop
    vertex 6.500078675417342 13.452229548076659 1.9999999999999998
    vertex 11.649928567079943 10.478966761211426 7.0
    vertex 6.500078675417342 13.452229548076659 7.0
  endloop
endfacet
facet normal 0.49998848363300047 -0.8660320526599307 0.0
  outer loop
    vertex 6.500078675417342 13.452229548076659 7.0
    vertex 1.3500981303733959 10.47897820530322 1.9999999999999998
    vertex 6.500078675417342 13.452229548076659 1.9999999999999998
  endloop
endfacet
facet normal 0.49998848363300047 -0.8660320526599307 0.0
  outer loop
    vertex 1.3500981303733959 10.47897820530322 1.9999999999999998
    vertex 6.500078675417342 13.452229548076659 7.0
    vertex 1.3500981303733959 10.47897820530322 7.0
  endloop
endfacet
facet normal 0.0 0.0 1.0
  outer loop
    vertex 1.3501191112083575 4.532231379131345 1.9999999999999998
    vertex 3.028004643587505 7.064393091777828 1.9999999999999998
    vertex 3.014416215090193 7.821129847148922 1.9999999999999998
  endloop
endfacet
facet normal 0.0 0.0 1.0
  outer loop
    vertex 3.028004643587505 7.064393091777828 1.9999999999999998
    vertex 1.3501191112083575 4.532231379131345 1.9999999999999998
    vertex 3.204058644441996 6.328312922100099 1.9999999999999998
  endloop
endfacet
facet normal 0.0 0.0 1.0
  outer loop
    vertex 3.204058644441996 6.328312922100099 1.9999999999999998
    vertex 1.3501191112083575 4.532231379131345 1.9999999999999998
    vertex 3.5340409251731972 5.647416163066891 1.9999999999999998
  endloop
endfacet
facet normal 0.0 0.0 1.0
  outer loop
    vertex 3.5340409251731972 5.647416163066891 1.9999999999999998
    vertex 1.3501191112083575 4.532231379131345 1.9999999999999998
    vertex 6.499968287615218 1.5589647775688458 1.9999999999999998
  endloop
endfacet
facet normal 0.0 0.0 1.0
  outer loop
    vertex 3.5340409251731972 5.647416163066891 1.9999999999999998
    vertex 6.499968287615218 1.5589647775688458 1.9999999999999998
    vertex 4.002889153627788 5.053235102275879 1.9999999999999998
  endloop
endfacet
facet normal 0.0 0.0 1.0
  outer loop
    vertex 4.002889153627788 5.053235102275879 1.9999999999999998
    vertex 6.499968287615218 1.5589647775688458 1.9999999999999998
    vertex 4.588441369203965 4.573788691143068 1.9999999999999998
  endloop
endfacet
facet normal 0.0 0.0 1.0
  outer loop
    vertex 4.588441369203965 4.573788691143068 1.9999999999999998
    vertex 6.499968287615218 1.5589647775688458 1.9999999999999998
    vertex 5.263482091097274 4.231274653057127 1.9999999999999998
  endloop
endfacet
facet normal 0.0 0.0 1.0
  outer loop
    vertex 5.263482091097274 4.231274653057127 1.9999999999999998
    vertex 6.499968287615218 1.5589647775688458 1.9999999999999998
    vertex 5.9962866279167315 4.042035151104005 1.9999999999999998
  endloop
endfacet
facet normal 0.0 0.0 1.0
  outer loop
    vertex 5.9962866279167315 4.042035151104005 1.9999999999999998
    vertex 6.499968287615218 1.5589647775688458 1.9999999999999998
    vertex 6.75264501300279 4.014683771709475 1.9999999999999998
  endloop
endfacet
facet normal 0.0 0.0 1.0
  outer loop
    vertex 6.75264501300279 4.014683771709475 1.9999999999999998
    vertex 6.499968287615218 1.5589647775688458 1.9999999999999998
    vertex 11.650009629396829 4.532326746562986 1.9999999999999998
  endloop
endfacet
facet normal 0.0 0.0 1.0
  outer loop
    vertex 6.75264501300279 4.014683771709475 1.9999999999999998
    vertex 11.650009629396829 4.532326746562986 1.9999999999999998
    vertex 7.497042414812485 4.1506968027153315 1.9999999999999998
  endloop
endfacet
facet normal 0.0 0.0 1.0
  outer loop
    vertex 7.497042414812485 4.1506968027153315 1.9999999999999998
    vertex 11.650009629396829 4.532326746562986 1.9999999999999998
    vertex 8.194958207277692 4.443509150127438 1.9999999999999998
  endloop
endfacet
facet normal 0.0 0.0 1.0
  outer loop
    vertex 8.194958207277692 4.443509150127438 1.9999999999999998
    vertex 11.650009629396829 4.532326746562986 1.9999999999999998
    vertex 8.81368732181016 4.879437494854003 1.9999999999999998
  endloop
endfacet
facet normal 0.0 0.0 1.0
  outer loop
    vertex 8.81368732181016 4.879437494854003 1.9999999999999998
    vertex 11.650009629396829 4.532326746562986 1.9999999999999998
    vertex 9.324280020861066 5.438126612285641 1.9999999999999998
  endloop
endfacet
facet normal 0.0 0.0 1.0
  outer loop
    vertex 9.324280020861066 5.438126612285641 1.9999999999999998
    vertex 11.650009629396829 4.532326746562986 1.9999999999999998
    vertex 9.702697989611067 6.093564081768064 1.9999999999999998
  endloop
endfacet
facet normal 0.0 0.0 1.0
  outer loop
    vertex 9.702697989611067 6.093564081768064 1.9999999999999998
    vertex 11.650009629396829 4.532326746562986 1.9999999999999998
    vertex 9.931240317491927 6.815094996074706 1.9999999999999998
  endloop
endfacet
facet normal 0.0 0.0 1.0
  outer loop
    vertex 9.931240317491927 6.815094996074706 1.9999999999999998
    vertex 11.650009629396829 4.532326746562986 1.9999999999999998
    vertex 9.999400612978375 7.568894434551269 1.9999999999999998
  endloop
endfacet
facet normal 0.0 0.0 1.0
  outer loop
    vertex 9.999400612978375 7.568894434551269 1.9999999999999998
    vertex 11.650009629396829 4.532326746562986 1.9999999999999998
    vertex 11.649928567079943 10.478966761211426 1.9999999999999998
  endloop
endfacet
facet normal 0.0 0.0 1.0
  outer loop
    vertex 1.3500981303733959 10.47897820530322 1.9999999999999998
    vertex 3.469069955019392 9.25558953342822 1.9999999999999998
    vertex 6.500078675417342 13.452229548076659 1.9999999999999998
  endloop
endfacet
facet normal 0.0 0.0 1.0
  outer loop
    vertex 3.469069955019392 9.25558953342822 1.9999999999999998
    vertex 1.3500981303733959 10.47897820530322 1.9999999999999998
    vertex 1.3501191112083575 4.532231379131345 1.9999999999999998
  endloop
endfacet
facet normal 0.0 0.0 1.0
  outer loop
    vertex 3.469069955019392 9.25558953342822 1.9999999999999998
    vertex 1.3501191112083575 4.532231379131345 1.9999999999999998
    vertex 3.163679597048198 8.56306176243213 1.9999999999999998
  endloop
endfacet
facet normal 0.0 0.0 1.0
  outer loop
    vertex 3.163679597048198 8.56306176243213 1.9999999999999998
    vertex 1.3501191112083575 4.532231379131345 1.9999999999999998
    vertex 3.014416215090193 7.821129847148922 1.9999999999999998
  endloop
endfacet
facet normal 0.0 0.0 1.0
  outer loop
    vertex 6.500078675417342 13.452229548076659 1.9999999999999998
    vertex 3.469069955019392 9.25558953342822 1.9999999999999998
    vertex 3.916059014467632 9.866223383525876 1.9999999999999998
  endloop
endfacet
facet normal 0.0 0.0 1.0
  outer loop
    vertex 6.500078675417342 13.452229548076659 1.9999999999999998
    vertex 3.916059014467632 9.866223383525876 1.9999999999999998
    vertex 4.484019753603377 10.36655907688525 1.9999999999999998
  endloop
endfacet
facet normal 0.0 0.0 1.0
  outer loop
    vertex 6.500078675417342 13.452229548076659 1.9999999999999998
    vertex 4.484019753603377 10.36655907688525 1.9999999999999998
    vertex 5.14610624041978 10.733056116680174 1.9999999999999998
  endloop
endfacet
facet normal 0.0 0.0 1.0
  outer loop
    vertex 6.500078675417342 13.452229548076659 1.9999999999999998
    vertex 5.14610624041978 10.733056116680174 1.9999999999999998
    vertex 5.871598479418196 10.94862847385791 1.9999999999999998
  endloop
endfacet
facet normal 0.0 0.0 1.0
  outer loop
    vertex 6.500078675417342 13.452229548076659 1.9999999999999998
    vertex 5.871598479418196 10.94862847385791 1.9999999999999998
    vertex 6.626323935655987 11.00341134128955 1.9999999999999998
  endloop
endfacet
facet normal 0.0 0.0 1.0
  outer loop
    vertex 6.500078675417342 13.452229548076659 1.9999999999999998
    vertex 6.626323935655987 11.00341134128955 1.9999999999999998
    vertex 11.649928567079943 10.478966761211426 1.9999999999999998
  endloop
endfacet
facet normal 0.0 0.0 1.0
  outer loop
    vertex 11.649928567079943 10.478966761211426 1.9999999999999998
    vertex 6.626323935655987 11.00341134128955 1.9999999999999998
    vertex 7.375323769716657 10.894467402080563 1.9999999999999998
  endloop
endfacet
facet normal 0.0 0.0 1.0
  outer loop
    vertex 11.649928567079943 10.478966761211426 1.9999999999999998
    vertex 7.375323769716657 10.894467402080563 1.9999999999999998
    vertex 8.08331238952104 10.62708764133838 1.9999999999999998
  endloop
endfacet
facet normal 0.0 0.0 1.0
  outer loop
    vertex 11.649928567079943 10.478966761211426 1.9999999999999998
    vertex 8.08331238952104 10.62708764133838 1.9999999999999998
    vertex 8.717398163942729 10.213639307598145 1.9999999999999998
  endloop
endfacet
facet normal 0.0 0.0 1.0
  outer loop
    vertex 11.649928567079943 10.478966761211426 1.9999999999999998
    vertex 8.717398163942729 10.213639307598145 1.9999999999999998
    vertex 9.24768829074327 9.673630762676268 1.9999999999999998
  endloop
endfacet
facet normal 0.0 0.0 1.0
  outer loop
    vertex 11.649928567079943 10.478966761211426 1.9999999999999998
    vertex 9.24768829074327 9.673630762676268 1.9999999999999998
    vertex 9.649554726747908 9.032280970195798 1.9999999999999998
  endloop
endfacet
facet normal 0.0 0.0 1.0
  outer loop
    vertex 11.649928567079943 10.478966761211426 1.9999999999999998
    vertex 9.649554726747908 9.032280970195798 1.9999999999999998
    vertex 9.903962371019757 8.319607782939938 1.9999999999999998
  endloop
endfacet
facet normal 0.0 0.0 1.0
  outer loop
    vertex 11.649928567079943 10.478966761211426 1.9999999999999998
    vertex 9.903962371019757 8.319607782939938 1.9999999999999998
    vertex 9.999400612978375 7.568894434551269 1.9999999999999998
  endloop
endfacet
facet normal 0.0 0.0 1.0
  outer loop
    vertex 0.0 3.752782579705826 7.0
    vertex 1.3501191112083575 4.532231379131345 7.0
    vertex 0.0 11.258359469649795 7.0
  endloop
endfacet
facet normal 0.0 0.0 1.0
  outer loop
    vertex 1.3501191112083575 4.532231379131345 7.0
    vertex 0.0 3.752782579705826 7.0
    vertex 6.500010549735363 0.0 7.0
  endloop
endfacet
facet normal 0.0 0.0 1.0
  outer loop
    vertex 0.0 11.258359469649795 7.0
    vertex 1.3501191112083575 4.532231379131345 7.0
    vertex 1.3500981303733959 10.47897820530322 7.0
  endloop
endfacet
facet normal 0.0 0.0 1.0
  outer loop
    vertex 1.3501191112083575 4.532231379131345 7.0
    vertex 6.500010549735363 0.0 7.0
    vertex 6.499968287615218 1.5589647775688458 7.0
  endloop
endfacet
facet normal 0.0 0.0 1.0
  outer loop
    vertex 6.499968287615218 1.5589647775688458 7.0
    vertex 6.500010549735363 0.0 7.0
    vertex 11.650009629396829 4.532326746562986 7.0
  endloop
endfacet
facet normal 0.0 0.0 1.0
  outer loop
    vertex 11.650009629396829 4.532326746562986 7.0
    vertex 6.500010549735363 0.0 7.0
    vertex 12.99999999895202 3.7527947608935537 7.0
  endloop
endfacet
facet normal 0.0 0.0 1.0
  outer loop
    vertex 1.3500981303733959 10.47897820530322 7.0
    vertex 6.500017721076004 15.011099929638263 7.0
    vertex 0.0 11.258359469649795 7.0
  endloop
endfacet
facet normal 0.0 0.0 1.0
  outer loop
    vertex 6.500017721076004 15.011099929638263 7.0
    vertex 1.3500981303733959 10.47897820530322 7.0
    vertex 6.500078675417342 13.452229548076659 7.0
  endloop
endfacet
facet normal 0.0 0.0 1.0
  outer loop
    vertex 6.500017721076004 15.011099929638263 7.0
    vertex 6.500078675417342 13.452229548076659 7.0
    vertex 12.99999999895202 11.258227326159856 7.0
  endloop
endfacet
facet normal 0.0 0.0 1.0
  outer loop
    vertex 12.99999999895202 11.258227326159856 7.0
    vertex 6.500078675417342 13.452229548076659 7.0
    vertex 11.649928567079943 10.478966761211426 7.0
  endloop
endfacet
facet normal 0.0 0.0 1.0
  outer loop
    vertex 12.99999999895202 11.258227326159856 7.0
    vertex 11.649928567079943 10.478966761211426 7.0
    vertex 11.650009629396829 4.532326746562986 7.0
  endloop
endfacet
facet normal 0.0 0.0 1.0
  outer loop
    vertex 12.99999999895202 11.258227326159856 7.0
    vertex 11.650009629396829 4.532326746562986 7.0
    vertex 12.99999999895202 3.7527947608935537 7.0
  endloop
endfacet
facet normal 0.5000106006402559 0.8660192834154276 3.12325081155564e-32
  outer loop
    vertex 6.500017721076004 15.011099929638263 7.0
    vertex 12.99999999895202 11.258227326159856 1.0574874309554614e-15
    vertex 6.500017721076004 15.011099929638263 1.0574874309554614e-15
  endloop
endfacet
facet normal 0.5000106006402559 0.8660192834154276 3.12325081155564e-32
  outer loop
    vertex 12.99999999895202 11.258227326159856 1.0574874309554614e-15
    vertex 6.500017721076004 15.011099929638263 7.0
    vertex 12.99999999895202 11.258227326159856 7.0
  endloop
endfacet
facet normal 1.0 0.0 0.0
  outer loop
    vertex 12.99999999895202 11.258227326159856 1.0574874309554614e-15
    vertex 12.99999999895202 3.7527947608935537 7.0
    vertex 12.99999999895202 3.7527947608935537 1.0574874309554614e-15
  endloop
endfacet
facet normal 1.0 0.0 0.0
  outer loop
    vertex 12.99999999895202 3.7527947608935537 7.0
    vertex 12.99999999895202 11.258227326159856 1.0574874309554614e-15
    vertex 12.99999999895202 11.258227326159856 7.0
  endloop
endfacet
facet normal 0.5000024084805668 -0.8660240132430697 -1.4128226428952022e-32
  outer loop
    vertex 12.99999999895202 3.7527947608935537 7.0
    vertex 6.500010549735363 0.0 1.0574874309554614e-15
    vertex 12.99999999895202 3.7527947608935537 1.0574874309554614e-15
  endloop
endfacet
facet normal 0.5000024084805668 -0.8660240132430697 -1.4128226428952022e-32
  outer loop
    vertex 6.500010549735363 0.0 1.0574874309554614e-15
    vertex 12.99999999895202 3.7527947608935537 7.0
    vertex 6.500010549735363 0.0 7.0
  endloop
endfacet
facet normal -0.49999997392741835 -0.8660254188374503 3.9040911732712345e-33
  outer loop
    vertex 6.500010549735363 0.0 7.0
    vertex 0.0 3.752782579705826 1.0574874309554614e-15
    vertex 6.500010549735363 0.0 1.0574874309554614e-15
  endloop
endfacet
facet normal -0.49999997392741835 -0.8660254188374503 3.9040911732712345e-33
  outer loop
    vertex 0.0 3.752782579705826 1.0574874309554614e-15
    vertex 6.500010549735363 0.0 7.0
    vertex 0.0 3.752782579705826 7.0
  endloop
endfacet
facet normal -1.0 0.0 0.0
  outer loop
    vertex 0.0 11.258359469649795 7.0
    vertex 0.0 3.752782579705826 1.0574874309554614e-15
    vertex 0.0 3.752782579705826 7.0
  endloop
endfacet
facet normal -1.0 0.0 0.0
  outer loop
    vertex 0.0 3.752782579705826 1.0574874309554614e-15
    vertex 0.0 11.258359469649795 7.0
    vertex 0.0 11.258359469649795 1.0574874309554614e-15
  endloop
endfacet
facet normal -0.4999953513320302 0.8660280876775069 1.3186888302927057e-17
  outer loop
    vertex 0.0 11.258359469649795 7.0
    vertex 6.500017721076004 15.011099929638263 1.0574874309554614e-15
    vertex 0.0 11.258359469649795 1.0574874309554614e-15
  endloop
endfacet
facet normal -0.4999953513320302 0.8660280876775069 1.3186888302927057e-17
  outer loop
    vertex 6.500017721076004 15.011099929638263 1.0574874309554614e-15
    vertex 0.0 11.258359469649795 7.0
    vertex 6.500017721076004 15.011099929638263 7.0
  endloop
endfacet
facet normal 2.3764806399451073e-17 5.092606740076692e-18 -1.0
  outer loop
    vertex 6.500017721076004 15.011099929638263 1.0574874309554614e-15
    vertex 0.0 3.752782579705826 1.0574874309554614e-15
    vertex 0.0 11.258359469649795 1.0574874309554614e-15
  endloop
endfacet
facet normal 2.3764806399451073e-17 5.092606740076692e-18 -1.0
  outer loop
    vertex 0.0 3.752782579705826 1.0574874309554614e-15
    vertex 6.500017721076004 15.011099929638263 1.0574874309554614e-15
    vertex 3.469069955019392 9.25558953342822 0.0
  endloop
endfacet
facet normal 2.3764806399451073e-17 5.092606740076692e-18 -1.0
  outer loop
    vertex 0.0 3.752782579705826 1.0574874309554614e-15
    vertex 3.469069955019392 9.25558953342822 0.0
    vertex 3.163679597048198 8.56306176243213 0.0
  endloop
endfacet
facet normal 2.3764806399451073e-17 5.092606740076692e-18 -1.0
  outer loop
    vertex 0.0 3.752782579705826 1.0574874309554614e-15
    vertex 3.163679597048198 8.56306176243213 0.0
    vertex 3.014416215090193 7.821129847148922 0.0
  endloop
endfacet
facet normal 2.3764806399451073e-17 5.092606740076692e-18 -1.0
  outer loop
    vertex 3.469069955019392 9.25558953342822 0.0
    vertex 6.500017721076004 15.011099929638263 1.0574874309554614e-15
    vertex 3.916059014467632 9.866223383525876 0.0
  endloop
endfacet
facet normal 2.3764806399451073e-17 5.092606740076692e-18 -1.0
  outer loop
    vertex 3.916059014467632 9.866223383525876 0.0
    vertex 6.500017721076004 15.011099929638263 1.0574874309554614e-15
    vertex 4.484019753603377 10.36655907688525 0.0
  endloop
endfacet
facet normal 2.3764806399451073e-17 5.092606740076692e-18 -1.0
  outer loop
    vertex 4.484019753603377 10.36655907688525 0.0
    vertex 6.500017721076004 15.011099929638263 1.0574874309554614e-15
    vertex 5.14610624041978 10.733056116680174 0.0
  endloop
endfacet
facet normal 2.3764806399451073e-17 5.092606740076692e-18 -1.0
  outer loop
    vertex 5.14610624041978 10.733056116680174 0.0
    vertex 6.500017721076004 15.011099929638263 1.0574874309554614e-15
    vertex 5.871598479418196 10.94862847385791 0.0
  endloop
endfacet
facet normal 2.3764806399451073e-17 5.092606740076692e-18 -1.0
  outer loop
    vertex 5.871598479418196 10.94862847385791 0.0
    vertex 6.500017721076004 15.011099929638263 1.0574874309554614e-15
    vertex 6.626323935655987 11.00341134128955 0.0
  endloop
endfacet
facet normal 2.3764806399451073e-17 5.092606740076692e-18 -1.0
  outer loop
    vertex 6.626323935655987 11.00341134128955 0.0
    vertex 6.500017721076004 15.011099929638263 1.0574874309554614e-15
    vertex 12.99999999895202 11.258227326159856 1.0574874309554614e-15
  endloop
endfacet
facet normal 2.3764806399451073e-17 5.092606740076692e-18 -1.0
  outer loop
    vertex 6.626323935655987 11.00341134128955 0.0
    vertex 12.99999999895202 11.258227326159856 1.0574874309554614e-15
    vertex 7.375323769716657 10.894467402080563 0.0
  endloop
endfacet
facet normal 2.3764806399451073e-17 5.092606740076692e-18 -1.0
  outer loop
    vertex 7.375323769716657 10.894467402080563 0.0
    vertex 12.99999999895202 11.258227326159856 1.0574874309554614e-15
    vertex 8.08331238952104 10.62708764133838 0.0
  endloop
endfacet
facet normal 2.3764806399451073e-17 5.092606740076692e-18 -1.0
  outer loop
    vertex 8.08331238952104 10.62708764133838 0.0
    vertex 12.99999999895202 11.258227326159856 1.0574874309554614e-15
    vertex 8.717398163942729 10.213639307598145 0.0
  endloop
endfacet
facet normal 2.3764806399451073e-17 5.092606740076692e-18 -1.0
  outer loop
    vertex 8.717398163942729 10.213639307598145 0.0
    vertex 12.99999999895202 11.258227326159856 1.0574874309554614e-15
    vertex 9.24768829074327 9.673630762676268 0.0
  endloop
endfacet
facet normal 2.3764806399451073e-17 5.092606740076692e-18 -1.0
  outer loop
    vertex 9.24768829074327 9.673630762676268 0.0
    vertex 12.99999999895202 11.258227326159856 1.0574874309554614e-15
    vertex 9.649554726747908 9.032280970195798 0.0
  endloop
endfacet
facet normal 2.3764806399451073e-17 5.092606740076692e-18 -1.0
  outer loop
    vertex 9.649554726747908 9.032280970195798 0.0
    vertex 12.99999999895202 11.258227326159856 1.0574874309554614e-15
    vertex 9.903962371019757 8.319607782939938 0.0
  endloop
endfacet
facet normal 2.3764806399451073e-17 5.092606740076692e-18 -1.0
  outer loop
    vertex 9.903962371019757 8.319607782939938 0.0
    vertex 12.99999999895202 11.258227326159856 1.0574874309554614e-15
    vertex 9.999400612978375 7.568894434551269 0.0
  endloop
endfacet
facet normal 2.3764806399451073e-17 5.092606740076692e-18 -1.0
  outer loop
    vertex 0.0 3.752782579705826 1.0574874309554614e-15
    vertex 3.5340409251731972 5.647416163066891 0.0
    vertex 6.500010549735363 0.0 1.0574874309554614e-15
  endloop
endfacet
facet normal 2.3764806399451073e-17 5.092606740076692e-18 -1.0
  outer loop
    vertex 3.5340409251731972 5.647416163066891 0.0
    vertex 0.0 3.752782579705826 1.0574874309554614e-15
    vertex 3.204058644441996 6.328312922100099 0.0
  endloop
endfacet
facet normal 2.3764806399451073e-17 5.092606740076692e-18 -1.0
  outer loop
    vertex 3.204058644441996 6.328312922100099 0.0
    vertex 0.0 3.752782579705826 1.0574874309554614e-15
    vertex 3.028004643587505 7.064393091777828 0.0
  endloop
endfacet
facet normal 2.3764806399451073e-17 5.092606740076692e-18 -1.0
  outer loop
    vertex 3.028004643587505 7.064393091777828 0.0
    vertex 0.0 3.752782579705826 1.0574874309554614e-15
    vertex 3.014416215090193 7.821129847148922 0.0
  endloop
endfacet
facet normal 2.3764806399451073e-17 5.092606740076692e-18 -1.0
  outer loop
    vertex 6.500010549735363 0.0 1.0574874309554614e-15
    vertex 3.5340409251731972 5.647416163066891 0.0
    vertex 4.002889153627788 5.053235102275879 0.0
  endloop
endfacet
facet normal 2.3764806399451073e-17 5.092606740076692e-18 -1.0
  outer loop
    vertex 6.500010549735363 0.0 1.0574874309554614e-15
    vertex 4.002889153627788 5.053235102275879 0.0
    vertex 4.588441369203965 4.573788691143068 0.0
  endloop
endfacet
facet normal 2.3764806399451073e-17 5.092606740076692e-18 -1.0
  outer loop
    vertex 6.500010549735363 0.0 1.0574874309554614e-15
    vertex 4.588441369203965 4.573788691143068 0.0
    vertex 5.263482091097274 4.231274653057127 0.0
  endloop
endfacet
facet normal 2.3764806399451073e-17 5.092606740076692e-18 -1.0
  outer loop
    vertex 6.500010549735363 0.0 1.0574874309554614e-15
    vertex 5.263482091097274 4.231274653057127 0.0
    vertex 5.9962866279167315 4.042035151104005 0.0
  endloop
endfacet
facet normal 2.3764806399451073e-17 5.092606740076692e-18 -1.0
  outer loop
    vertex 6.500010549735363 0.0 1.0574874309554614e-15
    vertex 5.9962866279167315 4.042035151104005 0.0
    vertex 6.75264501300279 4.014683771709475 0.0
  endloop
endfacet
facet normal 2.3764806399451073e-17 5.092606740076692e-18 -1.0
  outer loop
    vertex 6.500010549735363 0.0 1.0574874309554614e-15
    vertex 6.75264501300279 4.014683771709475 0.0
    vertex 12.99999999895202 3.7527947608935537 1.0574874309554614e-15
  endloop
endfacet
facet normal 2.3764806399451073e-17 5.092606740076692e-18 -1.0
  outer loop
    vertex 12.99999999895202 3.7527947608935537 1.0574874309554614e-15
    vertex 6.75264501300279 4.014683771709475 0.0
    vertex 7.497042414812485 4.1506968027153315 0.0
  endloop
endfacet
facet normal 2.3764806399451073e-17 5.092606740076692e-18 -1.0
  outer loop
    vertex 12.99999999895202 3.7527947608935537 1.0574874309554614e-15
    vertex 7.497042414812485 4.1506968027153315 0.0
    vertex 8.194958207277692 4.443509150127438 0.0
  endloop
endfacet
facet normal 2.3764806399451073e-17 5.092606740076692e-18 -1.0
  outer loop
    vertex 12.99999999895202 3.7527947608935537 1.0574874309554614e-15
    vertex 8.194958207277692 4.443509150127438 0.0
    vertex 8.81368732181016 4.879437494854003 0.0
  endloop
endfacet
facet normal 2.3764806399451073e-17 5.092606740076692e-18 -1.0
  outer loop
    vertex 12.99999999895202 3.7527947608935537 1.0574874309554614e-15
    vertex 8.81368732181016 4.879437494854003 0.0
    vertex 9.324280020861066 5.438126612285641 0.0
  endloop
endfacet
facet normal 2.3764806399451073e-17 5.092606740076692e-18 -1.0
  outer loop
    vertex 12.99999999895202 3.7527947608935537 1.0574874309554614e-15
    vertex 9.324280020861066 5.438126612285641 0.0
    vertex 9.702697989611067 6.093564081768064 0.0
  endloop
endfacet
facet normal 2.3764806399451073e-17 5.092606740076692e-18 -1.0
  outer loop
    vertex 12.99999999895202 3.7527947608935537 1.0574874309554614e-15
    vertex 9.702697989611067 6.093564081768064 0.0
    vertex 9.931240317491927 6.815094996074706 0.0
  endloop
endfacet
facet normal 2.3764806399451073e-17 5.092606740076692e-18 -1.0
  outer loop
    vertex 12.99999999895202 3.7527947608935537 1.0574874309554614e-15
    vertex 9.931240317491927 6.815094996074706 0.0
    vertex 9.999400612978375 7.568894434551269 0.0
  endloop
endfacet
facet normal 2.3764806399451073e-17 5.092606740076692e-18 -1.0
  outer loop
    vertex 12.99999999895202 3.7527947608935537 1.0574874309554614e-15
    vertex 9.999400612978375 7.568894434551269 0.0
    vertex 12.99999999895202 11.258227326159856 1.0574874309554614e-15
  endloop
endfacet
endsolid Untitled-54b6c332
