solid Default
  facet normal 1.401298e-45 3.583905e-31 1.000000e+00
    outer loop
      vertex -1.690370e+00 -4.529333e-01 5.000000e+00
      vertex -1.690370e+00 4.529333e-01 5.000000e+00
      vertex -1.750000e+00 0.000000e+00 5.000000e+00
    endloop
  endfacet
  facet normal 1.401298e-45 3.583905e-31 1.000000e+00
    outer loop
      vertex -1.690370e+00 4.529333e-01 5.000000e+00
      vertex -1.690370e+00 -4.529333e-01 5.000000e+00
      vertex -1.515544e+00 -8.750000e-01 5.000000e+00
    endloop
  endfacet
  facet normal 1.401298e-45 3.583905e-31 1.000000e+00
    outer loop
      vertex -1.690370e+00 4.529333e-01 5.000000e+00
      vertex -1.515544e+00 -8.750000e-01 5.000000e+00
      vertex -1.515544e+00 8.750000e-01 5.000000e+00
    endloop
  endfacet
  facet normal 1.401298e-45 3.583905e-31 1.000000e+00
    outer loop
      vertex -1.515544e+00 8.750000e-01 5.000000e+00
      vertex -1.515544e+00 -8.750000e-01 5.000000e+00
      vertex -1.237437e+00 -1.237437e+00 5.000000e+00
    endloop
  endfacet
  facet normal 1.401298e-45 3.583905e-31 1.000000e+00
    outer loop
      vertex -1.515544e+00 8.750000e-01 5.000000e+00
      vertex -1.237437e+00 -1.237437e+00 5.000000e+00
      vertex -1.237437e+00 1.237437e+00 5.000000e+00
    endloop
  endfacet
  facet normal 1.401298e-45 3.583905e-31 1.000000e+00
    outer loop
      vertex -1.237437e+00 1.237437e+00 5.000000e+00
      vertex -1.237437e+00 -1.237437e+00 5.000000e+00
      vertex -8.750000e-01 -1.515544e+00 5.000000e+00
    endloop
  endfacet
  facet normal 1.401298e-45 3.583905e-31 1.000000e+00
    outer loop
      vertex -1.237437e+00 1.237437e+00 5.000000e+00
      vertex -8.750000e-01 -1.515544e+00 5.000000e+00
      vertex -8.750000e-01 1.515544e+00 5.000000e+00
    endloop
  endfacet
  facet normal 1.401298e-45 3.583905e-31 1.000000e+00
    outer loop
      vertex -8.750000e-01 1.515544e+00 5.000000e+00
      vertex -8.750000e-01 -1.515544e+00 5.000000e+00
      vertex -4.529333e-01 1.690370e+00 5.000000e+00
    endloop
  endfacet
  facet normal 1.401298e-45 3.583905e-31 1.000000e+00
    outer loop
      vertex -4.529333e-01 1.690370e+00 5.000000e+00
      vertex -8.750000e-01 -1.515544e+00 5.000000e+00
      vertex -4.529333e-01 -1.690370e+00 5.000000e+00
    endloop
  endfacet
  facet normal 1.401298e-45 3.583905e-31 1.000000e+00
    outer loop
      vertex -4.529333e-01 1.690370e+00 5.000000e+00
      vertex -4.529333e-01 -1.690370e+00 5.000000e+00
      vertex 0.000000e+00 -1.750000e+00 5.000000e+00
    endloop
  endfacet
  facet normal 1.401298e-45 3.583905e-31 1.000000e+00
    outer loop
      vertex -4.529333e-01 1.690370e+00 5.000000e+00
      vertex 0.000000e+00 -1.750000e+00 5.000000e+00
      vertex 0.000000e+00 1.750000e+00 5.000000e+00
    endloop
  endfacet
  facet normal 1.401298e-45 3.583905e-31 1.000000e+00
    outer loop
      vertex 0.000000e+00 1.750000e+00 5.000000e+00
      vertex 0.000000e+00 -1.750000e+00 5.000000e+00
      vertex 4.529333e-01 -1.690370e+00 5.000000e+00
    endloop
  endfacet
  facet normal 1.401298e-45 3.583905e-31 1.000000e+00
    outer loop
      vertex 0.000000e+00 1.750000e+00 5.000000e+00
      vertex 4.529333e-01 -1.690370e+00 5.000000e+00
      vertex 4.529333e-01 1.690370e+00 5.000000e+00
    endloop
  endfacet
  facet normal 1.401298e-45 3.583905e-31 1.000000e+00
    outer loop
      vertex 4.529333e-01 1.690370e+00 5.000000e+00
      vertex 4.529333e-01 -1.690370e+00 5.000000e+00
      vertex 8.750000e-01 -1.515544e+00 5.000000e+00
    endloop
  endfacet
  facet normal 1.401298e-45 3.583905e-31 1.000000e+00
    outer loop
      vertex 4.529333e-01 1.690370e+00 5.000000e+00
      vertex 8.750000e-01 -1.515544e+00 5.000000e+00
      vertex 8.750000e-01 1.515544e+00 5.000000e+00
    endloop
  endfacet
  facet normal 1.401298e-45 3.583905e-31 1.000000e+00
    outer loop
      vertex 8.750000e-01 1.515544e+00 5.000000e+00
      vertex 8.750000e-01 -1.515544e+00 5.000000e+00
      vertex 1.237437e+00 1.237437e+00 5.000000e+00
    endloop
  endfacet
  facet normal 1.401298e-45 3.583905e-31 1.000000e+00
    outer loop
      vertex 1.237437e+00 1.237437e+00 5.000000e+00
      vertex 8.750000e-01 -1.515544e+00 5.000000e+00
      vertex 1.237437e+00 -1.237437e+00 5.000000e+00
    endloop
  endfacet
  facet normal 1.401298e-45 3.583905e-31 1.000000e+00
    outer loop
      vertex 1.237437e+00 1.237437e+00 5.000000e+00
      vertex 1.237437e+00 -1.237437e+00 5.000000e+00
      vertex 1.515544e+00 -8.750000e-01 5.000000e+00
    endloop
  endfacet
  facet normal 1.401298e-45 3.583905e-31 1.000000e+00
    outer loop
      vertex 1.237437e+00 1.237437e+00 5.000000e+00
      vertex 1.515544e+00 -8.750000e-01 5.000000e+00
      vertex 1.515544e+00 8.750000e-01 5.000000e+00
    endloop
  endfacet
  facet normal 1.401298e-45 3.583905e-31 1.000000e+00
    outer loop
      vertex 1.515544e+00 8.750000e-01 5.000000e+00
      vertex 1.515544e+00 -8.750000e-01 5.000000e+00
      vertex 1.690370e+00 -4.529333e-01 5.000000e+00
    endloop
  endfacet
  facet normal 1.401298e-45 3.583905e-31 1.000000e+00
    outer loop
      vertex 1.515544e+00 8.750000e-01 5.000000e+00
      vertex 1.690370e+00 -4.529333e-01 5.000000e+00
      vertex 1.690370e+00 4.529333e-01 5.000000e+00
    endloop
  endfacet
  facet normal 1.401298e-45 3.583905e-31 1.000000e+00
    outer loop
      vertex 1.690370e+00 4.529333e-01 5.000000e+00
      vertex 1.690370e+00 -4.529333e-01 5.000000e+00
      vertex 1.750000e+00 0.000000e+00 5.000000e+00
    endloop
  endfacet
  facet normal 2.588190e-01 9.659258e-01 1.079963e-18
    outer loop
      vertex 9.705715e-01 3.622222e+00 5.500000e+00
      vertex 1.875000e+00 3.247595e+00 5.000000e-01
      vertex 9.705715e-01 3.622222e+00 5.000000e-01
    endloop
  endfacet
  facet normal 5.000000e-01 8.660254e-01 3.318868e-18
    outer loop
      vertex 1.875000e+00 3.247595e+00 5.000000e-01
      vertex 9.705715e-01 3.622222e+00 5.500000e+00
      vertex 1.875000e+00 3.247595e+00 5.500000e+00
    endloop
  endfacet
  facet normal -1.782222e-17 1.000000e+00 3.683552e-19
    outer loop
      vertex 0.000000e+00 3.750000e+00 5.500000e+00
      vertex 9.705715e-01 3.622222e+00 5.000000e-01
      vertex 0.000000e+00 3.750000e+00 5.000000e-01
    endloop
  endfacet
  facet normal 2.588190e-01 9.659258e-01 1.079963e-18
    outer loop
      vertex 9.705715e-01 3.622222e+00 5.000000e-01
      vertex 0.000000e+00 3.750000e+00 5.500000e+00
      vertex 9.705715e-01 3.622222e+00 5.500000e+00
    endloop
  endfacet
  facet normal -2.588190e-01 9.659258e-01 3.683552e-19
    outer loop
      vertex -9.705715e-01 3.622222e+00 5.500000e+00
      vertex 0.000000e+00 3.750000e+00 5.000000e-01
      vertex -9.705715e-01 3.622222e+00 5.000000e-01
    endloop
  endfacet
  facet normal -1.782222e-17 1.000000e+00 3.683552e-19
    outer loop
      vertex 0.000000e+00 3.750000e+00 5.000000e-01
      vertex -9.705715e-01 3.622222e+00 5.500000e+00
      vertex 0.000000e+00 3.750000e+00 5.500000e+00
    endloop
  endfacet
  facet normal -5.000000e-01 8.660254e-01 1.722133e-33
    outer loop
      vertex -1.875000e+00 3.247595e+00 5.500000e+00
      vertex -9.705715e-01 3.622222e+00 5.000000e-01
      vertex -1.875000e+00 3.247595e+00 5.000000e-01
    endloop
  endfacet
  facet normal -2.588190e-01 9.659258e-01 3.683552e-19
    outer loop
      vertex -9.705715e-01 3.622222e+00 5.000000e-01
      vertex -1.875000e+00 3.247595e+00 5.500000e+00
      vertex -9.705715e-01 3.622222e+00 5.500000e+00
    endloop
  endfacet
  facet normal -7.071068e-01 7.071068e-01 1.757207e-33
    outer loop
      vertex -2.651650e+00 2.651650e+00 5.500000e+00
      vertex -1.875000e+00 3.247595e+00 5.000000e-01
      vertex -2.651650e+00 2.651650e+00 5.000000e-01
    endloop
  endfacet
  facet normal -5.000000e-01 8.660254e-01 1.722133e-33
    outer loop
      vertex -1.875000e+00 3.247595e+00 5.000000e-01
      vertex -2.651650e+00 2.651650e+00 5.500000e+00
      vertex -1.875000e+00 3.247595e+00 5.500000e+00
    endloop
  endfacet
  facet normal -7.071068e-01 7.071068e-01 1.757207e-33
    outer loop
      vertex -2.651650e+00 2.651650e+00 5.500000e+00
      vertex -3.247595e+00 1.875000e+00 5.000000e-01
      vertex -3.247595e+00 1.875000e+00 5.500000e+00
    endloop
  endfacet
  facet normal -8.660254e-01 5.000000e-01 1.079963e-18
    outer loop
      vertex -3.247595e+00 1.875000e+00 5.000000e-01
      vertex -2.651650e+00 2.651650e+00 5.500000e+00
      vertex -2.651650e+00 2.651650e+00 5.000000e-01
    endloop
  endfacet
  facet normal -8.660254e-01 5.000000e-01 1.079963e-18
    outer loop
      vertex -3.247595e+00 1.875000e+00 5.500000e+00
      vertex -3.622222e+00 9.705715e-01 5.000000e-01
      vertex -3.622222e+00 9.705715e-01 5.500000e+00
    endloop
  endfacet
  facet normal -9.659258e-01 2.588190e-01 1.079963e-18
    outer loop
      vertex -3.622222e+00 9.705715e-01 5.000000e-01
      vertex -3.247595e+00 1.875000e+00 5.500000e+00
      vertex -3.247595e+00 1.875000e+00 5.000000e-01
    endloop
  endfacet
  facet normal -9.659258e-01 2.588190e-01 1.079963e-18
    outer loop
      vertex -3.622222e+00 9.705715e-01 5.500000e+00
      vertex -3.750000e+00 0.000000e+00 5.000000e-01
      vertex -3.750000e+00 0.000000e+00 5.500000e+00
    endloop
  endfacet
  facet normal -1.000000e+00 -9.802221e-17 -3.683552e-19
    outer loop
      vertex -3.750000e+00 0.000000e+00 5.000000e-01
      vertex -3.622222e+00 9.705715e-01 5.500000e+00
      vertex -3.622222e+00 9.705715e-01 5.000000e-01
    endloop
  endfacet
  facet normal -1.000000e+00 -9.802221e-17 -3.683552e-19
    outer loop
      vertex -3.750000e+00 0.000000e+00 5.500000e+00
      vertex -3.622222e+00 -9.705715e-01 5.000000e-01
      vertex -3.622222e+00 -9.705715e-01 5.500000e+00
    endloop
  endfacet
  facet normal -9.659258e-01 -2.588190e-01 7.116076e-19
    outer loop
      vertex -3.622222e+00 -9.705715e-01 5.000000e-01
      vertex -3.750000e+00 0.000000e+00 5.500000e+00
      vertex -3.750000e+00 0.000000e+00 5.000000e-01
    endloop
  endfacet
  facet normal -9.659258e-01 -2.588190e-01 7.116076e-19
    outer loop
      vertex -3.622222e+00 -9.705715e-01 5.500000e+00
      vertex -3.247595e+00 -1.875000e+00 5.000000e-01
      vertex -3.247595e+00 -1.875000e+00 5.500000e+00
    endloop
  endfacet
  facet normal -8.660254e-01 -5.000000e-01 1.079963e-18
    outer loop
      vertex -3.247595e+00 -1.875000e+00 5.000000e-01
      vertex -3.622222e+00 -9.705715e-01 5.500000e+00
      vertex -3.622222e+00 -9.705715e-01 5.000000e-01
    endloop
  endfacet
  facet normal -8.660254e-01 -5.000000e-01 1.079963e-18
    outer loop
      vertex -3.247595e+00 -1.875000e+00 5.500000e+00
      vertex -2.651650e+00 -2.651650e+00 5.000000e-01
      vertex -2.651650e+00 -2.651650e+00 5.500000e+00
    endloop
  endfacet
  facet normal -7.071068e-01 -7.071068e-01 0.000000e+00
    outer loop
      vertex -2.651650e+00 -2.651650e+00 5.000000e-01
      vertex -3.247595e+00 -1.875000e+00 5.500000e+00
      vertex -3.247595e+00 -1.875000e+00 5.000000e-01
    endloop
  endfacet
  facet normal -5.000000e-01 -8.660254e-01 -2.894641e-34
    outer loop
      vertex -1.875000e+00 -3.247595e+00 5.500000e+00
      vertex -2.651650e+00 -2.651650e+00 5.000000e-01
      vertex -1.875000e+00 -3.247595e+00 5.000000e-01
    endloop
  endfacet
  facet normal -7.071068e-01 -7.071068e-01 0.000000e+00
    outer loop
      vertex -2.651650e+00 -2.651650e+00 5.000000e-01
      vertex -1.875000e+00 -3.247595e+00 5.500000e+00
      vertex -2.651650e+00 -2.651650e+00 5.500000e+00
    endloop
  endfacet
  facet normal -2.588190e-01 -9.659258e-01 3.311287e-19
    outer loop
      vertex -9.705715e-01 -3.622222e+00 5.500000e+00
      vertex -1.875000e+00 -3.247595e+00 5.000000e-01
      vertex -9.705715e-01 -3.622222e+00 5.000000e-01
    endloop
  endfacet
  facet normal -5.000000e-01 -8.660254e-01 -2.894641e-34
    outer loop
      vertex -1.875000e+00 -3.247595e+00 5.000000e-01
      vertex -9.705715e-01 -3.622222e+00 5.500000e+00
      vertex -1.875000e+00 -3.247595e+00 5.500000e+00
    endloop
  endfacet
  facet normal -2.316889e-16 -1.000000e+00 -3.683552e-19
    outer loop
      vertex 0.000000e+00 -3.750000e+00 5.500000e+00
      vertex -9.705715e-01 -3.622222e+00 5.000000e-01
      vertex 0.000000e+00 -3.750000e+00 5.000000e-01
    endloop
  endfacet
  facet normal -2.588190e-01 -9.659258e-01 3.311287e-19
    outer loop
      vertex -9.705715e-01 -3.622222e+00 5.000000e-01
      vertex 0.000000e+00 -3.750000e+00 5.500000e+00
      vertex -9.705715e-01 -3.622222e+00 5.500000e+00
    endloop
  endfacet
  facet normal 2.588190e-01 -9.659258e-01 3.804789e-19
    outer loop
      vertex 9.705715e-01 -3.622222e+00 5.500000e+00
      vertex 0.000000e+00 -3.750000e+00 5.000000e-01
      vertex 9.705715e-01 -3.622222e+00 5.000000e-01
    endloop
  endfacet
  facet normal -2.316889e-16 -1.000000e+00 -3.683552e-19
    outer loop
      vertex 0.000000e+00 -3.750000e+00 5.000000e-01
      vertex 9.705715e-01 -3.622222e+00 5.500000e+00
      vertex 0.000000e+00 -3.750000e+00 5.500000e+00
    endloop
  endfacet
  facet normal 5.000000e-01 -8.660254e-01 -1.158943e-18
    outer loop
      vertex 1.875000e+00 -3.247595e+00 5.500000e+00
      vertex 9.705715e-01 -3.622222e+00 5.000000e-01
      vertex 1.875000e+00 -3.247595e+00 5.000000e-01
    endloop
  endfacet
  facet normal 2.588190e-01 -9.659258e-01 3.804789e-19
    outer loop
      vertex 9.705715e-01 -3.622222e+00 5.000000e-01
      vertex 1.875000e+00 -3.247595e+00 5.500000e+00
      vertex 9.705715e-01 -3.622222e+00 5.500000e+00
    endloop
  endfacet
  facet normal 7.071068e-01 -7.071068e-01 -2.238906e-18
    outer loop
      vertex 2.651650e+00 -2.651650e+00 5.500000e+00
      vertex 1.875000e+00 -3.247595e+00 5.000000e-01
      vertex 2.651650e+00 -2.651650e+00 5.000000e-01
    endloop
  endfacet
  facet normal 5.000000e-01 -8.660254e-01 -1.158943e-18
    outer loop
      vertex 1.875000e+00 -3.247595e+00 5.000000e-01
      vertex 2.651650e+00 -2.651650e+00 5.500000e+00
      vertex 1.875000e+00 -3.247595e+00 5.500000e+00
    endloop
  endfacet
  facet normal 8.660254e-01 -5.000000e-01 1.525866e-33
    outer loop
      vertex 3.247595e+00 -1.875000e+00 5.000000e-01
      vertex 2.651650e+00 -2.651650e+00 5.500000e+00
      vertex 2.651650e+00 -2.651650e+00 5.000000e-01
    endloop
  endfacet
  facet normal 7.071068e-01 -7.071068e-01 -2.238906e-18
    outer loop
      vertex 2.651650e+00 -2.651650e+00 5.500000e+00
      vertex 3.247595e+00 -1.875000e+00 5.000000e-01
      vertex 3.247595e+00 -1.875000e+00 5.500000e+00
    endloop
  endfacet
  facet normal 9.659258e-01 -2.588190e-01 0.000000e+00
    outer loop
      vertex 3.622222e+00 -9.705715e-01 5.000000e-01
      vertex 3.247595e+00 -1.875000e+00 5.500000e+00
      vertex 3.247595e+00 -1.875000e+00 5.000000e-01
    endloop
  endfacet
  facet normal 8.660254e-01 -5.000000e-01 1.525866e-33
    outer loop
      vertex 3.247595e+00 -1.875000e+00 5.500000e+00
      vertex 3.622222e+00 -9.705715e-01 5.000000e-01
      vertex 3.622222e+00 -9.705715e-01 5.500000e+00
    endloop
  endfacet
  facet normal 1.000000e+00 1.960444e-16 0.000000e+00
    outer loop
      vertex 3.750000e+00 0.000000e+00 5.000000e-01
      vertex 3.622222e+00 -9.705715e-01 5.500000e+00
      vertex 3.622222e+00 -9.705715e-01 5.000000e-01
    endloop
  endfacet
  facet normal 9.659258e-01 -2.588190e-01 0.000000e+00
    outer loop
      vertex 3.622222e+00 -9.705715e-01 5.500000e+00
      vertex 3.750000e+00 0.000000e+00 5.000000e-01
      vertex 3.750000e+00 0.000000e+00 5.500000e+00
    endloop
  endfacet
  facet normal 9.659258e-01 2.588190e-01 -1.918399e-33
    outer loop
      vertex 3.622222e+00 9.705715e-01 5.000000e-01
      vertex 3.750000e+00 0.000000e+00 5.500000e+00
      vertex 3.750000e+00 0.000000e+00 5.000000e-01
    endloop
  endfacet
  facet normal 1.000000e+00 1.960444e-16 0.000000e+00
    outer loop
      vertex 3.750000e+00 0.000000e+00 5.500000e+00
      vertex 3.622222e+00 9.705715e-01 5.000000e-01
      vertex 3.622222e+00 9.705715e-01 5.500000e+00
    endloop
  endfacet
  facet normal 8.660254e-01 5.000000e-01 -1.717973e-18
    outer loop
      vertex 3.247595e+00 1.875000e+00 5.000000e-01
      vertex 3.622222e+00 9.705715e-01 5.500000e+00
      vertex 3.622222e+00 9.705715e-01 5.000000e-01
    endloop
  endfacet
  facet normal 9.659258e-01 2.588190e-01 -1.918399e-33
    outer loop
      vertex 3.622222e+00 9.705715e-01 5.500000e+00
      vertex 3.247595e+00 1.875000e+00 5.000000e-01
      vertex 3.247595e+00 1.875000e+00 5.500000e+00
    endloop
  endfacet
  facet normal 7.071068e-01 7.071068e-01 5.209329e-19
    outer loop
      vertex 2.651650e+00 2.651650e+00 5.000000e-01
      vertex 3.247595e+00 1.875000e+00 5.500000e+00
      vertex 3.247595e+00 1.875000e+00 5.000000e-01
    endloop
  endfacet
  facet normal 8.660254e-01 5.000000e-01 -1.717973e-18
    outer loop
      vertex 3.247595e+00 1.875000e+00 5.500000e+00
      vertex 2.651650e+00 2.651650e+00 5.000000e-01
      vertex 2.651650e+00 2.651650e+00 5.500000e+00
    endloop
  endfacet
  facet normal 5.000000e-01 8.660254e-01 3.318868e-18
    outer loop
      vertex 1.875000e+00 3.247595e+00 5.500000e+00
      vertex 2.651650e+00 2.651650e+00 5.000000e-01
      vertex 1.875000e+00 3.247595e+00 5.000000e-01
    endloop
  endfacet
  facet normal 7.071068e-01 7.071068e-01 5.209329e-19
    outer loop
      vertex 2.651650e+00 2.651650e+00 5.000000e-01
      vertex 1.875000e+00 3.247595e+00 5.500000e+00
      vertex 2.651650e+00 2.651650e+00 5.500000e+00
    endloop
  endfacet
  facet normal -5.000000e-01 8.660254e-01 -3.103752e-31
    outer loop
      vertex 8.750000e-01 -1.515544e+00 6.000000e+00
      vertex 1.237437e+00 -1.237437e+00 5.000000e+00
      vertex 8.750000e-01 -1.515544e+00 5.000000e+00
    endloop
  endfacet
  facet normal -7.071068e-01 7.071068e-01 -2.534203e-31
    outer loop
      vertex 1.237437e+00 -1.237437e+00 5.000000e+00
      vertex 8.750000e-01 -1.515544e+00 6.000000e+00
      vertex 1.237437e+00 -1.237437e+00 6.000000e+00
    endloop
  endfacet
  facet normal -8.660254e-01 5.000000e-01 -1.791952e-31
    outer loop
      vertex 1.515544e+00 -8.750000e-01 6.000000e+00
      vertex 1.237437e+00 -1.237437e+00 5.000000e+00
      vertex 1.237437e+00 -1.237437e+00 6.000000e+00
    endloop
  endfacet
  facet normal -7.071068e-01 7.071068e-01 -2.534203e-31
    outer loop
      vertex 1.237437e+00 -1.237437e+00 5.000000e+00
      vertex 1.515544e+00 -8.750000e-01 6.000000e+00
      vertex 1.515544e+00 -8.750000e-01 5.000000e+00
    endloop
  endfacet
  facet normal -2.588190e-01 9.659258e-01 -3.461786e-31
    outer loop
      vertex 4.529333e-01 -1.690370e+00 6.000000e+00
      vertex 8.750000e-01 -1.515544e+00 5.000000e+00
      vertex 4.529333e-01 -1.690370e+00 5.000000e+00
    endloop
  endfacet
  facet normal -5.000000e-01 8.660254e-01 -3.103752e-31
    outer loop
      vertex 8.750000e-01 -1.515544e+00 5.000000e+00
      vertex 4.529333e-01 -1.690370e+00 6.000000e+00
      vertex 8.750000e-01 -1.515544e+00 6.000000e+00
    endloop
  endfacet
  facet normal -8.660254e-01 -5.000000e-01 1.791952e-31
    outer loop
      vertex 1.515544e+00 8.750000e-01 6.000000e+00
      vertex 1.690370e+00 4.529333e-01 5.000000e+00
      vertex 1.690370e+00 4.529333e-01 6.000000e+00
    endloop
  endfacet
  facet normal -9.659258e-01 -2.588190e-01 9.275828e-32
    outer loop
      vertex 1.690370e+00 4.529333e-01 5.000000e+00
      vertex 1.515544e+00 8.750000e-01 6.000000e+00
      vertex 1.515544e+00 8.750000e-01 5.000000e+00
    endloop
  endfacet
  facet normal -7.071068e-01 -7.071068e-01 2.534203e-31
    outer loop
      vertex 1.237437e+00 1.237437e+00 6.000000e+00
      vertex 1.515544e+00 8.750000e-01 5.000000e+00
      vertex 1.515544e+00 8.750000e-01 6.000000e+00
    endloop
  endfacet
  facet normal -8.660254e-01 -5.000000e-01 1.791952e-31
    outer loop
      vertex 1.515544e+00 8.750000e-01 5.000000e+00
      vertex 1.237437e+00 1.237437e+00 6.000000e+00
      vertex 1.237437e+00 1.237437e+00 5.000000e+00
    endloop
  endfacet
  facet normal -9.659258e-01 -2.588190e-01 9.275828e-32
    outer loop
      vertex 1.690370e+00 4.529333e-01 6.000000e+00
      vertex 1.750000e+00 0.000000e+00 5.000000e+00
      vertex 1.750000e+00 0.000000e+00 6.000000e+00
    endloop
  endfacet
  facet normal -1.000000e+00 2.227777e-16 1.401298e-45
    outer loop
      vertex 1.750000e+00 0.000000e+00 5.000000e+00
      vertex 1.690370e+00 4.529333e-01 6.000000e+00
      vertex 1.690370e+00 4.529333e-01 5.000000e+00
    endloop
  endfacet
  facet normal 2.588190e-01 -9.659258e-01 3.461786e-31
    outer loop
      vertex -4.529333e-01 1.690370e+00 6.000000e+00
      vertex -8.750000e-01 1.515544e+00 5.000000e+00
      vertex -4.529333e-01 1.690370e+00 5.000000e+00
    endloop
  endfacet
  facet normal 5.000000e-01 -8.660254e-01 3.103752e-31
    outer loop
      vertex -8.750000e-01 1.515544e+00 5.000000e+00
      vertex -4.529333e-01 1.690370e+00 6.000000e+00
      vertex -8.750000e-01 1.515544e+00 6.000000e+00
    endloop
  endfacet
  facet normal 5.000000e-01 -8.660254e-01 3.103752e-31
    outer loop
      vertex -8.750000e-01 1.515544e+00 6.000000e+00
      vertex -1.237437e+00 1.237437e+00 5.000000e+00
      vertex -8.750000e-01 1.515544e+00 5.000000e+00
    endloop
  endfacet
  facet normal 7.071068e-01 -7.071068e-01 2.534203e-31
    outer loop
      vertex -1.237437e+00 1.237437e+00 5.000000e+00
      vertex -8.750000e-01 1.515544e+00 6.000000e+00
      vertex -1.237437e+00 1.237437e+00 6.000000e+00
    endloop
  endfacet
  facet normal 7.663554e-16 -1.000000e+00 3.583905e-31
    outer loop
      vertex 0.000000e+00 1.750000e+00 6.000000e+00
      vertex -4.529333e-01 1.690370e+00 5.000000e+00
      vertex 0.000000e+00 1.750000e+00 5.000000e+00
    endloop
  endfacet
  facet normal 2.588190e-01 -9.659258e-01 3.461786e-31
    outer loop
      vertex -4.529333e-01 1.690370e+00 5.000000e+00
      vertex 0.000000e+00 1.750000e+00 6.000000e+00
      vertex -4.529333e-01 1.690370e+00 6.000000e+00
    endloop
  endfacet
  facet normal 2.588190e-01 9.659258e-01 -3.461786e-31
    outer loop
      vertex -4.529333e-01 -1.690370e+00 6.000000e+00
      vertex 0.000000e+00 -1.750000e+00 5.000000e+00
      vertex -4.529333e-01 -1.690370e+00 5.000000e+00
    endloop
  endfacet
  facet normal -3.742666e-16 1.000000e+00 -3.583905e-31
    outer loop
      vertex 0.000000e+00 -1.750000e+00 5.000000e+00
      vertex -4.529333e-01 -1.690370e+00 6.000000e+00
      vertex 0.000000e+00 -1.750000e+00 6.000000e+00
    endloop
  endfacet
  facet normal -3.742666e-16 1.000000e+00 -3.583905e-31
    outer loop
      vertex 0.000000e+00 -1.750000e+00 6.000000e+00
      vertex 4.529333e-01 -1.690370e+00 5.000000e+00
      vertex 0.000000e+00 -1.750000e+00 5.000000e+00
    endloop
  endfacet
  facet normal -2.588190e-01 9.659258e-01 -3.461786e-31
    outer loop
      vertex 4.529333e-01 -1.690370e+00 5.000000e+00
      vertex 0.000000e+00 -1.750000e+00 6.000000e+00
      vertex 4.529333e-01 -1.690370e+00 6.000000e+00
    endloop
  endfacet
  facet normal 5.000000e-01 8.660254e-01 -3.103752e-31
    outer loop
      vertex -8.750000e-01 -1.515544e+00 6.000000e+00
      vertex -4.529333e-01 -1.690370e+00 5.000000e+00
      vertex -8.750000e-01 -1.515544e+00 5.000000e+00
    endloop
  endfacet
  facet normal 2.588190e-01 9.659258e-01 -3.461786e-31
    outer loop
      vertex -4.529333e-01 -1.690370e+00 5.000000e+00
      vertex -8.750000e-01 -1.515544e+00 6.000000e+00
      vertex -4.529333e-01 -1.690370e+00 6.000000e+00
    endloop
  endfacet
  facet normal 8.660254e-01 5.000000e-01 -1.791952e-31
    outer loop
      vertex -1.515544e+00 -8.750000e-01 5.000000e+00
      vertex -1.237437e+00 -1.237437e+00 6.000000e+00
      vertex -1.237437e+00 -1.237437e+00 5.000000e+00
    endloop
  endfacet
  facet normal 7.071068e-01 7.071068e-01 -2.534203e-31
    outer loop
      vertex -1.237437e+00 -1.237437e+00 6.000000e+00
      vertex -1.515544e+00 -8.750000e-01 5.000000e+00
      vertex -1.515544e+00 -8.750000e-01 6.000000e+00
    endloop
  endfacet
  facet normal 7.071068e-01 7.071068e-01 -2.534203e-31
    outer loop
      vertex -1.237437e+00 -1.237437e+00 6.000000e+00
      vertex -8.750000e-01 -1.515544e+00 5.000000e+00
      vertex -1.237437e+00 -1.237437e+00 5.000000e+00
    endloop
  endfacet
  facet normal 5.000000e-01 8.660254e-01 -3.103752e-31
    outer loop
      vertex -8.750000e-01 -1.515544e+00 5.000000e+00
      vertex -1.237437e+00 -1.237437e+00 6.000000e+00
      vertex -8.750000e-01 -1.515544e+00 6.000000e+00
    endloop
  endfacet
  facet normal 9.659258e-01 2.588190e-01 -9.275828e-32
    outer loop
      vertex -1.690370e+00 -4.529333e-01 5.000000e+00
      vertex -1.515544e+00 -8.750000e-01 6.000000e+00
      vertex -1.515544e+00 -8.750000e-01 5.000000e+00
    endloop
  endfacet
  facet normal 8.660254e-01 5.000000e-01 -1.791952e-31
    outer loop
      vertex -1.515544e+00 -8.750000e-01 6.000000e+00
      vertex -1.690370e+00 -4.529333e-01 5.000000e+00
      vertex -1.690370e+00 -4.529333e-01 6.000000e+00
    endloop
  endfacet
  facet normal -9.659258e-01 2.588190e-01 -9.275828e-32
    outer loop
      vertex 1.690370e+00 -4.529333e-01 6.000000e+00
      vertex 1.515544e+00 -8.750000e-01 5.000000e+00
      vertex 1.515544e+00 -8.750000e-01 6.000000e+00
    endloop
  endfacet
  facet normal -8.660254e-01 5.000000e-01 -1.791952e-31
    outer loop
      vertex 1.515544e+00 -8.750000e-01 5.000000e+00
      vertex 1.690370e+00 -4.529333e-01 6.000000e+00
      vertex 1.690370e+00 -4.529333e-01 5.000000e+00
    endloop
  endfacet
  facet normal -1.000000e+00 2.227777e-16 1.401298e-45
    outer loop
      vertex 1.750000e+00 0.000000e+00 6.000000e+00
      vertex 1.690370e+00 -4.529333e-01 5.000000e+00
      vertex 1.690370e+00 -4.529333e-01 6.000000e+00
    endloop
  endfacet
  facet normal -9.659258e-01 2.588190e-01 -9.275828e-32
    outer loop
      vertex 1.690370e+00 -4.529333e-01 5.000000e+00
      vertex 1.750000e+00 0.000000e+00 6.000000e+00
      vertex 1.750000e+00 0.000000e+00 5.000000e+00
    endloop
  endfacet
  facet normal -5.000000e-01 -8.660254e-01 3.103752e-31
    outer loop
      vertex 8.750000e-01 1.515544e+00 6.000000e+00
      vertex 4.529333e-01 1.690370e+00 5.000000e+00
      vertex 8.750000e-01 1.515544e+00 5.000000e+00
    endloop
  endfacet
  facet normal -2.588190e-01 -9.659258e-01 3.461786e-31
    outer loop
      vertex 4.529333e-01 1.690370e+00 5.000000e+00
      vertex 8.750000e-01 1.515544e+00 6.000000e+00
      vertex 4.529333e-01 1.690370e+00 6.000000e+00
    endloop
  endfacet
  facet normal -2.588190e-01 -9.659258e-01 3.461786e-31
    outer loop
      vertex 4.529333e-01 1.690370e+00 6.000000e+00
      vertex 0.000000e+00 1.750000e+00 5.000000e+00
      vertex 4.529333e-01 1.690370e+00 5.000000e+00
    endloop
  endfacet
  facet normal 7.663554e-16 -1.000000e+00 3.583905e-31
    outer loop
      vertex 0.000000e+00 1.750000e+00 5.000000e+00
      vertex 4.529333e-01 1.690370e+00 6.000000e+00
      vertex 0.000000e+00 1.750000e+00 6.000000e+00
    endloop
  endfacet
  facet normal -7.071068e-01 -7.071068e-01 2.534203e-31
    outer loop
      vertex 1.237437e+00 1.237437e+00 6.000000e+00
      vertex 8.750000e-01 1.515544e+00 5.000000e+00
      vertex 1.237437e+00 1.237437e+00 5.000000e+00
    endloop
  endfacet
  facet normal -5.000000e-01 -8.660254e-01 3.103752e-31
    outer loop
      vertex 8.750000e-01 1.515544e+00 5.000000e+00
      vertex 1.237437e+00 1.237437e+00 6.000000e+00
      vertex 8.750000e-01 1.515544e+00 6.000000e+00
    endloop
  endfacet
  facet normal 1.000000e+00 -9.802221e-17 -1.401298e-45
    outer loop
      vertex -1.750000e+00 0.000000e+00 5.000000e+00
      vertex -1.690370e+00 -4.529333e-01 6.000000e+00
      vertex -1.690370e+00 -4.529333e-01 5.000000e+00
    endloop
  endfacet
  facet normal 9.659258e-01 2.588190e-01 -9.275828e-32
    outer loop
      vertex -1.690370e+00 -4.529333e-01 6.000000e+00
      vertex -1.750000e+00 0.000000e+00 5.000000e+00
      vertex -1.750000e+00 0.000000e+00 6.000000e+00
    endloop
  endfacet
  facet normal 9.659258e-01 -2.588190e-01 9.275828e-32
    outer loop
      vertex -1.690370e+00 4.529333e-01 5.000000e+00
      vertex -1.750000e+00 0.000000e+00 6.000000e+00
      vertex -1.750000e+00 0.000000e+00 5.000000e+00
    endloop
  endfacet
  facet normal 1.000000e+00 -9.802221e-17 -1.401298e-45
    outer loop
      vertex -1.750000e+00 0.000000e+00 6.000000e+00
      vertex -1.690370e+00 4.529333e-01 5.000000e+00
      vertex -1.690370e+00 4.529333e-01 6.000000e+00
    endloop
  endfacet
  facet normal 8.660254e-01 -5.000000e-01 1.791952e-31
    outer loop
      vertex -1.515544e+00 8.750000e-01 5.000000e+00
      vertex -1.690370e+00 4.529333e-01 6.000000e+00
      vertex -1.690370e+00 4.529333e-01 5.000000e+00
    endloop
  endfacet
  facet normal 9.659258e-01 -2.588190e-01 9.275828e-32
    outer loop
      vertex -1.690370e+00 4.529333e-01 6.000000e+00
      vertex -1.515544e+00 8.750000e-01 5.000000e+00
      vertex -1.515544e+00 8.750000e-01 6.000000e+00
    endloop
  endfacet
  facet normal 7.071068e-01 -7.071068e-01 2.534203e-31
    outer loop
      vertex -1.237437e+00 1.237437e+00 5.000000e+00
      vertex -1.515544e+00 8.750000e-01 6.000000e+00
      vertex -1.515544e+00 8.750000e-01 5.000000e+00
    endloop
  endfacet
  facet normal 8.660254e-01 -5.000000e-01 1.791952e-31
    outer loop
      vertex -1.515544e+00 8.750000e-01 6.000000e+00
      vertex -1.237437e+00 1.237437e+00 5.000000e+00
      vertex -1.237437e+00 1.237437e+00 6.000000e+00
    endloop
  endfacet
  facet normal 0.000000e+00 0.000000e+00 -1.000000e+00
    outer loop
      vertex -3.135091e+00 8.400455e-01 0.000000e+00
      vertex -3.135091e+00 -8.400452e-01 0.000000e+00
      vertex -3.245686e+00 0.000000e+00 0.000000e+00
    endloop
  endfacet
  facet normal 0.000000e+00 0.000000e+00 -1.000000e+00
    outer loop
      vertex -3.135091e+00 -8.400452e-01 0.000000e+00
      vertex -3.135091e+00 8.400455e-01 0.000000e+00
      vertex -2.810846e+00 1.622843e+00 0.000000e+00
    endloop
  endfacet
  facet normal 0.000000e+00 0.000000e+00 -1.000000e+00
    outer loop
      vertex -3.135091e+00 -8.400452e-01 0.000000e+00
      vertex -2.810846e+00 1.622843e+00 0.000000e+00
      vertex -2.810846e+00 -1.622843e+00 0.000000e+00
    endloop
  endfacet
  facet normal 0.000000e+00 0.000000e+00 -1.000000e+00
    outer loop
      vertex -2.810846e+00 -1.622843e+00 0.000000e+00
      vertex -2.810846e+00 1.622843e+00 0.000000e+00
      vertex -2.295046e+00 2.295046e+00 0.000000e+00
    endloop
  endfacet
  facet normal 0.000000e+00 0.000000e+00 -1.000000e+00
    outer loop
      vertex -2.810846e+00 -1.622843e+00 0.000000e+00
      vertex -2.295046e+00 2.295046e+00 0.000000e+00
      vertex -2.295046e+00 -2.295046e+00 0.000000e+00
    endloop
  endfacet
  facet normal 0.000000e+00 0.000000e+00 -1.000000e+00
    outer loop
      vertex -2.295046e+00 -2.295046e+00 0.000000e+00
      vertex -2.295046e+00 2.295046e+00 0.000000e+00
      vertex -1.622843e+00 2.810846e+00 0.000000e+00
    endloop
  endfacet
  facet normal 0.000000e+00 0.000000e+00 -1.000000e+00
    outer loop
      vertex -2.295046e+00 -2.295046e+00 0.000000e+00
      vertex -1.622843e+00 2.810846e+00 0.000000e+00
      vertex -1.622843e+00 -2.810846e+00 0.000000e+00
    endloop
  endfacet
  facet normal 0.000000e+00 0.000000e+00 -1.000000e+00
    outer loop
      vertex -1.622843e+00 -2.810846e+00 0.000000e+00
      vertex -1.622843e+00 2.810846e+00 0.000000e+00
      vertex -8.400452e-01 -3.135091e+00 0.000000e+00
    endloop
  endfacet
  facet normal 0.000000e+00 0.000000e+00 -1.000000e+00
    outer loop
      vertex -8.400452e-01 -3.135091e+00 0.000000e+00
      vertex -1.622843e+00 2.810846e+00 0.000000e+00
      vertex -8.400452e-01 3.135091e+00 0.000000e+00
    endloop
  endfacet
  facet normal 0.000000e+00 0.000000e+00 -1.000000e+00
    outer loop
      vertex -8.400452e-01 -3.135091e+00 0.000000e+00
      vertex -8.400452e-01 3.135091e+00 0.000000e+00
      vertex 0.000000e+00 -3.245686e+00 0.000000e+00
    endloop
  endfacet
  facet normal 0.000000e+00 0.000000e+00 -1.000000e+00
    outer loop
      vertex 0.000000e+00 -3.245686e+00 0.000000e+00
      vertex -8.400452e-01 3.135091e+00 0.000000e+00
      vertex 0.000000e+00 3.245686e+00 0.000000e+00
    endloop
  endfacet
  facet normal 0.000000e+00 0.000000e+00 -1.000000e+00
    outer loop
      vertex 0.000000e+00 -3.245686e+00 0.000000e+00
      vertex 0.000000e+00 3.245686e+00 0.000000e+00
      vertex 8.400455e-01 3.135091e+00 0.000000e+00
    endloop
  endfacet
  facet normal 0.000000e+00 0.000000e+00 -1.000000e+00
    outer loop
      vertex 0.000000e+00 -3.245686e+00 0.000000e+00
      vertex 8.400455e-01 3.135091e+00 0.000000e+00
      vertex 8.400455e-01 -3.135091e+00 0.000000e+00
    endloop
  endfacet
  facet normal 0.000000e+00 0.000000e+00 -1.000000e+00
    outer loop
      vertex 8.400455e-01 -3.135091e+00 0.000000e+00
      vertex 8.400455e-01 3.135091e+00 0.000000e+00
      vertex 1.622843e+00 -2.810846e+00 0.000000e+00
    endloop
  endfacet
  facet normal 0.000000e+00 0.000000e+00 -1.000000e+00
    outer loop
      vertex 1.622843e+00 -2.810846e+00 0.000000e+00
      vertex 8.400455e-01 3.135091e+00 0.000000e+00
      vertex 1.622843e+00 2.810846e+00 0.000000e+00
    endloop
  endfacet
  facet normal 0.000000e+00 0.000000e+00 -1.000000e+00
    outer loop
      vertex 1.622843e+00 -2.810846e+00 0.000000e+00
      vertex 1.622843e+00 2.810846e+00 0.000000e+00
      vertex 2.295046e+00 -2.295046e+00 0.000000e+00
    endloop
  endfacet
  facet normal 0.000000e+00 0.000000e+00 -1.000000e+00
    outer loop
      vertex 2.295046e+00 -2.295046e+00 0.000000e+00
      vertex 1.622843e+00 2.810846e+00 0.000000e+00
      vertex 2.295046e+00 2.295046e+00 0.000000e+00
    endloop
  endfacet
  facet normal 0.000000e+00 0.000000e+00 -1.000000e+00
    outer loop
      vertex 2.295046e+00 -2.295046e+00 0.000000e+00
      vertex 2.295046e+00 2.295046e+00 0.000000e+00
      vertex 2.810846e+00 1.622843e+00 0.000000e+00
    endloop
  endfacet
  facet normal 0.000000e+00 0.000000e+00 -1.000000e+00
    outer loop
      vertex 2.295046e+00 -2.295046e+00 0.000000e+00
      vertex 2.810846e+00 1.622843e+00 0.000000e+00
      vertex 2.810846e+00 -1.622843e+00 0.000000e+00
    endloop
  endfacet
  facet normal 0.000000e+00 0.000000e+00 -1.000000e+00
    outer loop
      vertex 2.810846e+00 -1.622843e+00 0.000000e+00
      vertex 2.810846e+00 1.622843e+00 0.000000e+00
      vertex 3.135091e+00 8.400455e-01 0.000000e+00
    endloop
  endfacet
  facet normal 0.000000e+00 0.000000e+00 -1.000000e+00
    outer loop
      vertex 2.810846e+00 -1.622843e+00 0.000000e+00
      vertex 3.135091e+00 8.400455e-01 0.000000e+00
      vertex 3.135091e+00 -8.400452e-01 0.000000e+00
    endloop
  endfacet
  facet normal 0.000000e+00 0.000000e+00 -1.000000e+00
    outer loop
      vertex 3.135091e+00 -8.400452e-01 0.000000e+00
      vertex 3.135091e+00 8.400455e-01 0.000000e+00
      vertex 3.245686e+00 0.000000e+00 0.000000e+00
    endloop
  endfacet
  facet normal 6.290625e-32 -9.435937e-32 1.000000e+00
    outer loop
      vertex -1.622843e+00 -2.810846e+00 6.000000e+00
      vertex -1.750000e+00 0.000000e+00 6.000000e+00
      vertex -2.295046e+00 -2.295046e+00 6.000000e+00
    endloop
  endfacet
  facet normal 6.290625e-32 -9.435937e-32 1.000000e+00
    outer loop
      vertex -1.750000e+00 0.000000e+00 6.000000e+00
      vertex -1.622843e+00 -2.810846e+00 6.000000e+00
      vertex -1.690370e+00 -4.529333e-01 6.000000e+00
    endloop
  endfacet
  facet normal 6.290625e-32 -9.435937e-32 1.000000e+00
    outer loop
      vertex -1.690370e+00 -4.529333e-01 6.000000e+00
      vertex -1.622843e+00 -2.810846e+00 6.000000e+00
      vertex -1.515544e+00 -8.750000e-01 6.000000e+00
    endloop
  endfacet
  facet normal 6.290625e-32 -9.435937e-32 1.000000e+00
    outer loop
      vertex -1.515544e+00 -8.750000e-01 6.000000e+00
      vertex -1.622843e+00 -2.810846e+00 6.000000e+00
      vertex -8.400452e-01 -3.135091e+00 6.000000e+00
    endloop
  endfacet
  facet normal 6.290625e-32 -9.435937e-32 1.000000e+00
    outer loop
      vertex -1.515544e+00 -8.750000e-01 6.000000e+00
      vertex -8.400452e-01 -3.135091e+00 6.000000e+00
      vertex -1.237437e+00 -1.237437e+00 6.000000e+00
    endloop
  endfacet
  facet normal 6.290625e-32 -9.435937e-32 1.000000e+00
    outer loop
      vertex -1.237437e+00 -1.237437e+00 6.000000e+00
      vertex -8.400452e-01 -3.135091e+00 6.000000e+00
      vertex -8.750000e-01 -1.515544e+00 6.000000e+00
    endloop
  endfacet
  facet normal 6.290625e-32 -9.435937e-32 1.000000e+00
    outer loop
      vertex -8.750000e-01 -1.515544e+00 6.000000e+00
      vertex -8.400452e-01 -3.135091e+00 6.000000e+00
      vertex -4.529333e-01 -1.690370e+00 6.000000e+00
    endloop
  endfacet
  facet normal 6.290625e-32 -9.435937e-32 1.000000e+00
    outer loop
      vertex -4.529333e-01 -1.690370e+00 6.000000e+00
      vertex -8.400452e-01 -3.135091e+00 6.000000e+00
      vertex 0.000000e+00 -3.245686e+00 6.000000e+00
    endloop
  endfacet
  facet normal 6.290625e-32 -9.435937e-32 1.000000e+00
    outer loop
      vertex -4.529333e-01 -1.690370e+00 6.000000e+00
      vertex 0.000000e+00 -3.245686e+00 6.000000e+00
      vertex 0.000000e+00 -1.750000e+00 6.000000e+00
    endloop
  endfacet
  facet normal 6.290625e-32 -9.435937e-32 1.000000e+00
    outer loop
      vertex 0.000000e+00 -1.750000e+00 6.000000e+00
      vertex 0.000000e+00 -3.245686e+00 6.000000e+00
      vertex 8.400455e-01 -3.135091e+00 6.000000e+00
    endloop
  endfacet
  facet normal 6.290625e-32 -9.435937e-32 1.000000e+00
    outer loop
      vertex 0.000000e+00 -1.750000e+00 6.000000e+00
      vertex 8.400455e-01 -3.135091e+00 6.000000e+00
      vertex 4.529333e-01 -1.690370e+00 6.000000e+00
    endloop
  endfacet
  facet normal 6.290625e-32 -9.435937e-32 1.000000e+00
    outer loop
      vertex 4.529333e-01 -1.690370e+00 6.000000e+00
      vertex 8.400455e-01 -3.135091e+00 6.000000e+00
      vertex 8.750000e-01 -1.515544e+00 6.000000e+00
    endloop
  endfacet
  facet normal 6.290625e-32 -9.435937e-32 1.000000e+00
    outer loop
      vertex 8.750000e-01 -1.515544e+00 6.000000e+00
      vertex 8.400455e-01 -3.135091e+00 6.000000e+00
      vertex 1.622843e+00 -2.810846e+00 6.000000e+00
    endloop
  endfacet
  facet normal 6.290625e-32 -9.435937e-32 1.000000e+00
    outer loop
      vertex 8.750000e-01 -1.515544e+00 6.000000e+00
      vertex 1.622843e+00 -2.810846e+00 6.000000e+00
      vertex 1.237437e+00 -1.237437e+00 6.000000e+00
    endloop
  endfacet
  facet normal 6.290625e-32 -9.435937e-32 1.000000e+00
    outer loop
      vertex 1.237437e+00 -1.237437e+00 6.000000e+00
      vertex 1.622843e+00 -2.810846e+00 6.000000e+00
      vertex 1.515544e+00 -8.750000e-01 6.000000e+00
    endloop
  endfacet
  facet normal 6.290625e-32 -9.435937e-32 1.000000e+00
    outer loop
      vertex 1.515544e+00 -8.750000e-01 6.000000e+00
      vertex 1.622843e+00 -2.810846e+00 6.000000e+00
      vertex 1.690370e+00 -4.529333e-01 6.000000e+00
    endloop
  endfacet
  facet normal 6.290625e-32 -9.435937e-32 1.000000e+00
    outer loop
      vertex 1.690370e+00 -4.529333e-01 6.000000e+00
      vertex 1.622843e+00 -2.810846e+00 6.000000e+00
      vertex 2.295046e+00 -2.295046e+00 6.000000e+00
    endloop
  endfacet
  facet normal 6.290625e-32 -9.435937e-32 1.000000e+00
    outer loop
      vertex 1.690370e+00 -4.529333e-01 6.000000e+00
      vertex 2.295046e+00 -2.295046e+00 6.000000e+00
      vertex 1.750000e+00 0.000000e+00 6.000000e+00
    endloop
  endfacet
  facet normal 6.290625e-32 -9.435937e-32 1.000000e+00
    outer loop
      vertex 1.750000e+00 0.000000e+00 6.000000e+00
      vertex 2.295046e+00 -2.295046e+00 6.000000e+00
      vertex 2.295046e+00 2.295046e+00 6.000000e+00
    endloop
  endfacet
  facet normal 6.290625e-32 -9.435937e-32 1.000000e+00
    outer loop
      vertex 2.295046e+00 2.295046e+00 6.000000e+00
      vertex 2.295046e+00 -2.295046e+00 6.000000e+00
      vertex 2.810846e+00 1.622843e+00 6.000000e+00
    endloop
  endfacet
  facet normal 6.290625e-32 -9.435937e-32 1.000000e+00
    outer loop
      vertex 2.810846e+00 1.622843e+00 6.000000e+00
      vertex 2.295046e+00 -2.295046e+00 6.000000e+00
      vertex 2.810846e+00 -1.622843e+00 6.000000e+00
    endloop
  endfacet
  facet normal 6.290625e-32 -9.435937e-32 1.000000e+00
    outer loop
      vertex 2.810846e+00 1.622843e+00 6.000000e+00
      vertex 2.810846e+00 -1.622843e+00 6.000000e+00
      vertex 3.135091e+00 -8.400452e-01 6.000000e+00
    endloop
  endfacet
  facet normal 6.290625e-32 -9.435937e-32 1.000000e+00
    outer loop
      vertex 2.810846e+00 1.622843e+00 6.000000e+00
      vertex 3.135091e+00 -8.400452e-01 6.000000e+00
      vertex 3.135091e+00 8.400455e-01 6.000000e+00
    endloop
  endfacet
  facet normal 6.290625e-32 -9.435937e-32 1.000000e+00
    outer loop
      vertex 3.135091e+00 8.400455e-01 6.000000e+00
      vertex 3.135091e+00 -8.400452e-01 6.000000e+00
      vertex 3.245686e+00 0.000000e+00 6.000000e+00
    endloop
  endfacet
  facet normal 6.290625e-32 -9.435937e-32 1.000000e+00
    outer loop
      vertex -3.135091e+00 -8.400452e-01 6.000000e+00
      vertex -3.135091e+00 8.400455e-01 6.000000e+00
      vertex -3.245686e+00 0.000000e+00 6.000000e+00
    endloop
  endfacet
  facet normal 6.290625e-32 -9.435937e-32 1.000000e+00
    outer loop
      vertex -3.135091e+00 8.400455e-01 6.000000e+00
      vertex -3.135091e+00 -8.400452e-01 6.000000e+00
      vertex -2.810846e+00 1.622843e+00 6.000000e+00
    endloop
  endfacet
  facet normal 6.290625e-32 -9.435937e-32 1.000000e+00
    outer loop
      vertex -2.810846e+00 1.622843e+00 6.000000e+00
      vertex -3.135091e+00 -8.400452e-01 6.000000e+00
      vertex -2.810846e+00 -1.622843e+00 6.000000e+00
    endloop
  endfacet
  facet normal 6.290625e-32 -9.435937e-32 1.000000e+00
    outer loop
      vertex -2.810846e+00 1.622843e+00 6.000000e+00
      vertex -2.810846e+00 -1.622843e+00 6.000000e+00
      vertex -2.295046e+00 2.295046e+00 6.000000e+00
    endloop
  endfacet
  facet normal 6.290625e-32 -9.435937e-32 1.000000e+00
    outer loop
      vertex -2.295046e+00 2.295046e+00 6.000000e+00
      vertex -2.810846e+00 -1.622843e+00 6.000000e+00
      vertex -2.295046e+00 -2.295046e+00 6.000000e+00
    endloop
  endfacet
  facet normal 6.290625e-32 -9.435937e-32 1.000000e+00
    outer loop
      vertex -2.295046e+00 2.295046e+00 6.000000e+00
      vertex -2.295046e+00 -2.295046e+00 6.000000e+00
      vertex -1.622843e+00 2.810846e+00 6.000000e+00
    endloop
  endfacet
  facet normal 6.290625e-32 -9.435937e-32 1.000000e+00
    outer loop
      vertex -1.622843e+00 2.810846e+00 6.000000e+00
      vertex -2.295046e+00 -2.295046e+00 6.000000e+00
      vertex -1.750000e+00 0.000000e+00 6.000000e+00
    endloop
  endfacet
  facet normal 6.290625e-32 -9.435937e-32 1.000000e+00
    outer loop
      vertex -1.622843e+00 2.810846e+00 6.000000e+00
      vertex -1.750000e+00 0.000000e+00 6.000000e+00
      vertex -1.690370e+00 4.529333e-01 6.000000e+00
    endloop
  endfacet
  facet normal 6.290625e-32 -9.435937e-32 1.000000e+00
    outer loop
      vertex -1.622843e+00 2.810846e+00 6.000000e+00
      vertex -1.690370e+00 4.529333e-01 6.000000e+00
      vertex -1.515544e+00 8.750000e-01 6.000000e+00
    endloop
  endfacet
  facet normal 6.290625e-32 -9.435937e-32 1.000000e+00
    outer loop
      vertex -1.622843e+00 2.810846e+00 6.000000e+00
      vertex -1.515544e+00 8.750000e-01 6.000000e+00
      vertex -8.400452e-01 3.135091e+00 6.000000e+00
    endloop
  endfacet
  facet normal 6.290625e-32 -9.435937e-32 1.000000e+00
    outer loop
      vertex -8.400452e-01 3.135091e+00 6.000000e+00
      vertex -1.515544e+00 8.750000e-01 6.000000e+00
      vertex -1.237437e+00 1.237437e+00 6.000000e+00
    endloop
  endfacet
  facet normal 6.290625e-32 -9.435937e-32 1.000000e+00
    outer loop
      vertex -8.400452e-01 3.135091e+00 6.000000e+00
      vertex -1.237437e+00 1.237437e+00 6.000000e+00
      vertex -8.750000e-01 1.515544e+00 6.000000e+00
    endloop
  endfacet
  facet normal 6.290625e-32 -9.435937e-32 1.000000e+00
    outer loop
      vertex -8.400452e-01 3.135091e+00 6.000000e+00
      vertex -8.750000e-01 1.515544e+00 6.000000e+00
      vertex -4.529333e-01 1.690370e+00 6.000000e+00
    endloop
  endfacet
  facet normal 6.290625e-32 -9.435937e-32 1.000000e+00
    outer loop
      vertex -8.400452e-01 3.135091e+00 6.000000e+00
      vertex -4.529333e-01 1.690370e+00 6.000000e+00
      vertex 0.000000e+00 3.245686e+00 6.000000e+00
    endloop
  endfacet
  facet normal 6.290625e-32 -9.435937e-32 1.000000e+00
    outer loop
      vertex 0.000000e+00 3.245686e+00 6.000000e+00
      vertex -4.529333e-01 1.690370e+00 6.000000e+00
      vertex 0.000000e+00 1.750000e+00 6.000000e+00
    endloop
  endfacet
  facet normal 6.290625e-32 -9.435937e-32 1.000000e+00
    outer loop
      vertex 0.000000e+00 3.245686e+00 6.000000e+00
      vertex 0.000000e+00 1.750000e+00 6.000000e+00
      vertex 4.529333e-01 1.690370e+00 6.000000e+00
    endloop
  endfacet
  facet normal 6.290625e-32 -9.435937e-32 1.000000e+00
    outer loop
      vertex 0.000000e+00 3.245686e+00 6.000000e+00
      vertex 4.529333e-01 1.690370e+00 6.000000e+00
      vertex 8.400455e-01 3.135091e+00 6.000000e+00
    endloop
  endfacet
  facet normal 6.290625e-32 -9.435937e-32 1.000000e+00
    outer loop
      vertex 8.400455e-01 3.135091e+00 6.000000e+00
      vertex 4.529333e-01 1.690370e+00 6.000000e+00
      vertex 8.750000e-01 1.515544e+00 6.000000e+00
    endloop
  endfacet
  facet normal 6.290625e-32 -9.435937e-32 1.000000e+00
    outer loop
      vertex 8.400455e-01 3.135091e+00 6.000000e+00
      vertex 8.750000e-01 1.515544e+00 6.000000e+00
      vertex 1.622843e+00 2.810846e+00 6.000000e+00
    endloop
  endfacet
  facet normal 6.290625e-32 -9.435937e-32 1.000000e+00
    outer loop
      vertex 1.622843e+00 2.810846e+00 6.000000e+00
      vertex 8.750000e-01 1.515544e+00 6.000000e+00
      vertex 1.237437e+00 1.237437e+00 6.000000e+00
    endloop
  endfacet
  facet normal 6.290625e-32 -9.435937e-32 1.000000e+00
    outer loop
      vertex 1.622843e+00 2.810846e+00 6.000000e+00
      vertex 1.237437e+00 1.237437e+00 6.000000e+00
      vertex 1.515544e+00 8.750000e-01 6.000000e+00
    endloop
  endfacet
  facet normal 6.290625e-32 -9.435937e-32 1.000000e+00
    outer loop
      vertex 1.622843e+00 2.810846e+00 6.000000e+00
      vertex 1.515544e+00 8.750000e-01 6.000000e+00
      vertex 1.690370e+00 4.529333e-01 6.000000e+00
    endloop
  endfacet
  facet normal 6.290625e-32 -9.435937e-32 1.000000e+00
    outer loop
      vertex 1.622843e+00 2.810846e+00 6.000000e+00
      vertex 1.690370e+00 4.529333e-01 6.000000e+00
      vertex 2.295046e+00 2.295046e+00 6.000000e+00
    endloop
  endfacet
  facet normal 6.290625e-32 -9.435937e-32 1.000000e+00
    outer loop
      vertex 2.295046e+00 2.295046e+00 6.000000e+00
      vertex 1.690370e+00 4.529333e-01 6.000000e+00
      vertex 1.750000e+00 0.000000e+00 6.000000e+00
    endloop
  endfacet
  facet normal 6.097361e-01 -3.520313e-01 7.101379e-01
    outer loop
      vertex 3.247595e+00 -1.875000e+00 5.500000e+00
      vertex 3.135091e+00 -8.400452e-01 6.000000e+00
      vertex 2.810846e+00 -1.622843e+00 6.000000e+00
    endloop
  endfacet
  facet normal 6.800722e-01 -1.822248e-01 7.101379e-01
    outer loop
      vertex 3.135091e+00 -8.400452e-01 6.000000e+00
      vertex 3.247595e+00 -1.875000e+00 5.500000e+00
      vertex 3.622222e+00 -9.705715e-01 5.500000e+00
    endloop
  endfacet
  facet normal -1.822248e-01 -6.800722e-01 7.101379e-01
    outer loop
      vertex -9.705715e-01 -3.622222e+00 5.500000e+00
      vertex -1.622843e+00 -2.810846e+00 6.000000e+00
      vertex -1.875000e+00 -3.247595e+00 5.500000e+00
    endloop
  endfacet
  facet normal -3.520313e-01 -6.097361e-01 7.101379e-01
    outer loop
      vertex -1.622843e+00 -2.810846e+00 6.000000e+00
      vertex -9.705715e-01 -3.622222e+00 5.500000e+00
      vertex -8.400452e-01 -3.135091e+00 6.000000e+00
    endloop
  endfacet
  facet normal -3.520313e-01 -6.097361e-01 -7.101379e-01
    outer loop
      vertex -1.622843e+00 -2.810846e+00 0.000000e+00
      vertex -9.705715e-01 -3.622222e+00 5.000000e-01
      vertex -1.875000e+00 -3.247595e+00 5.000000e-01
    endloop
  endfacet
  facet normal -1.822248e-01 -6.800722e-01 -7.101379e-01
    outer loop
      vertex -9.705715e-01 -3.622222e+00 5.000000e-01
      vertex -1.622843e+00 -2.810846e+00 0.000000e+00
      vertex -8.400452e-01 -3.135091e+00 0.000000e+00
    endloop
  endfacet
  facet normal 6.800722e-01 1.822248e-01 -7.101379e-01
    outer loop
      vertex 3.622222e+00 9.705715e-01 5.000000e-01
      vertex 3.245686e+00 0.000000e+00 0.000000e+00
      vertex 3.135091e+00 8.400455e-01 0.000000e+00
    endloop
  endfacet
  facet normal 7.040626e-01 6.702140e-17 -7.101379e-01
    outer loop
      vertex 3.245686e+00 0.000000e+00 0.000000e+00
      vertex 3.622222e+00 9.705715e-01 5.000000e-01
      vertex 3.750000e+00 0.000000e+00 5.000000e-01
    endloop
  endfacet
  facet normal 3.520313e-01 -6.097361e-01 7.101379e-01
    outer loop
      vertex 1.875000e+00 -3.247595e+00 5.500000e+00
      vertex 2.295046e+00 -2.295046e+00 6.000000e+00
      vertex 1.622843e+00 -2.810846e+00 6.000000e+00
    endloop
  endfacet
  facet normal 4.978474e-01 -4.978474e-01 7.101379e-01
    outer loop
      vertex 2.295046e+00 -2.295046e+00 6.000000e+00
      vertex 1.875000e+00 -3.247595e+00 5.500000e+00
      vertex 2.651650e+00 -2.651650e+00 5.500000e+00
    endloop
  endfacet
  facet normal -6.800722e-01 1.822248e-01 -7.101379e-01
    outer loop
      vertex -3.622222e+00 9.705715e-01 5.000000e-01
      vertex -3.245686e+00 0.000000e+00 0.000000e+00
      vertex -3.750000e+00 0.000000e+00 5.000000e-01
    endloop
  endfacet
  facet normal -7.040626e-01 -6.702140e-17 -7.101379e-01
    outer loop
      vertex -3.245686e+00 0.000000e+00 0.000000e+00
      vertex -3.622222e+00 9.705715e-01 5.000000e-01
      vertex -3.135091e+00 8.400455e-01 0.000000e+00
    endloop
  endfacet
  facet normal 4.978474e-01 4.978474e-01 -7.101379e-01
    outer loop
      vertex 2.651650e+00 2.651650e+00 5.000000e-01
      vertex 2.810846e+00 1.622843e+00 0.000000e+00
      vertex 2.295046e+00 2.295046e+00 0.000000e+00
    endloop
  endfacet
  facet normal 6.097361e-01 3.520313e-01 -7.101379e-01
    outer loop
      vertex 2.810846e+00 1.622843e+00 0.000000e+00
      vertex 2.651650e+00 2.651650e+00 5.000000e-01
      vertex 3.247595e+00 1.875000e+00 5.000000e-01
    endloop
  endfacet
  facet normal -7.040626e-01 -6.702140e-17 -7.101379e-01
    outer loop
      vertex -3.245686e+00 0.000000e+00 0.000000e+00
      vertex -3.622222e+00 -9.705715e-01 5.000000e-01
      vertex -3.750000e+00 0.000000e+00 5.000000e-01
    endloop
  endfacet
  facet normal -6.800722e-01 -1.822248e-01 -7.101379e-01
    outer loop
      vertex -3.622222e+00 -9.705715e-01 5.000000e-01
      vertex -3.245686e+00 0.000000e+00 0.000000e+00
      vertex -3.135091e+00 -8.400452e-01 0.000000e+00
    endloop
  endfacet
  facet normal 3.520313e-01 6.097361e-01 -7.101379e-01
    outer loop
      vertex 1.875000e+00 3.247595e+00 5.000000e-01
      vertex 2.295046e+00 2.295046e+00 0.000000e+00
      vertex 1.622843e+00 2.810846e+00 0.000000e+00
    endloop
  endfacet
  facet normal 4.978474e-01 4.978474e-01 -7.101379e-01
    outer loop
      vertex 2.295046e+00 2.295046e+00 0.000000e+00
      vertex 1.875000e+00 3.247595e+00 5.000000e-01
      vertex 2.651650e+00 2.651650e+00 5.000000e-01
    endloop
  endfacet
  facet normal -6.800722e-01 -1.822248e-01 -7.101379e-01
    outer loop
      vertex -3.135091e+00 -8.400452e-01 0.000000e+00
      vertex -3.247595e+00 -1.875000e+00 5.000000e-01
      vertex -3.622222e+00 -9.705715e-01 5.000000e-01
    endloop
  endfacet
  facet normal -6.097361e-01 -3.520313e-01 -7.101379e-01
    outer loop
      vertex -3.247595e+00 -1.875000e+00 5.000000e-01
      vertex -3.135091e+00 -8.400452e-01 0.000000e+00
      vertex -2.810846e+00 -1.622843e+00 0.000000e+00
    endloop
  endfacet
  facet normal -7.040626e-01 -8.377675e-17 7.101379e-01
    outer loop
      vertex -3.245686e+00 0.000000e+00 6.000000e+00
      vertex -3.622222e+00 9.705715e-01 5.500000e+00
      vertex -3.750000e+00 0.000000e+00 5.500000e+00
    endloop
  endfacet
  facet normal -6.800722e-01 1.822248e-01 7.101379e-01
    outer loop
      vertex -3.622222e+00 9.705715e-01 5.500000e+00
      vertex -3.245686e+00 0.000000e+00 6.000000e+00
      vertex -3.135091e+00 8.400455e-01 6.000000e+00
    endloop
  endfacet
  facet normal -1.414501e-16 -7.040626e-01 7.101379e-01
    outer loop
      vertex 0.000000e+00 -3.750000e+00 5.500000e+00
      vertex 8.400455e-01 -3.135091e+00 6.000000e+00
      vertex 0.000000e+00 -3.245686e+00 6.000000e+00
    endloop
  endfacet
  facet normal 1.822248e-01 -6.800722e-01 7.101379e-01
    outer loop
      vertex 8.400455e-01 -3.135091e+00 6.000000e+00
      vertex 0.000000e+00 -3.750000e+00 5.500000e+00
      vertex 9.705715e-01 -3.622222e+00 5.500000e+00
    endloop
  endfacet
  facet normal 6.800722e-01 1.822248e-01 7.101379e-01
    outer loop
      vertex 3.135091e+00 8.400455e-01 6.000000e+00
      vertex 3.247595e+00 1.875000e+00 5.500000e+00
      vertex 2.810846e+00 1.622843e+00 6.000000e+00
    endloop
  endfacet
  facet normal 6.097361e-01 3.520313e-01 7.101379e-01
    outer loop
      vertex 3.247595e+00 1.875000e+00 5.500000e+00
      vertex 3.135091e+00 8.400455e-01 6.000000e+00
      vertex 3.622222e+00 9.705715e-01 5.500000e+00
    endloop
  endfacet
  facet normal -1.822248e-01 -6.800722e-01 -7.101379e-01
    outer loop
      vertex -8.400452e-01 -3.135091e+00 0.000000e+00
      vertex 0.000000e+00 -3.750000e+00 5.000000e-01
      vertex -9.705715e-01 -3.622222e+00 5.000000e-01
    endloop
  endfacet
  facet normal -1.320201e-16 -7.040626e-01 -7.101379e-01
    outer loop
      vertex 0.000000e+00 -3.750000e+00 5.000000e-01
      vertex -8.400452e-01 -3.135091e+00 0.000000e+00
      vertex 0.000000e+00 -3.245686e+00 0.000000e+00
    endloop
  endfacet
  facet normal -3.520313e-01 -6.097361e-01 7.101379e-01
    outer loop
      vertex -1.875000e+00 -3.247595e+00 5.500000e+00
      vertex -2.295046e+00 -2.295046e+00 6.000000e+00
      vertex -2.651650e+00 -2.651650e+00 5.500000e+00
    endloop
  endfacet
  facet normal -4.978474e-01 -4.978474e-01 7.101379e-01
    outer loop
      vertex -2.295046e+00 -2.295046e+00 6.000000e+00
      vertex -1.875000e+00 -3.247595e+00 5.500000e+00
      vertex -1.622843e+00 -2.810846e+00 6.000000e+00
    endloop
  endfacet
  facet normal 1.822248e-01 6.800722e-01 7.101379e-01
    outer loop
      vertex 8.400455e-01 3.135091e+00 6.000000e+00
      vertex 0.000000e+00 3.750000e+00 5.500000e+00
      vertex 0.000000e+00 3.245686e+00 6.000000e+00
    endloop
  endfacet
  facet normal 5.658003e-17 7.040626e-01 7.101379e-01
    outer loop
      vertex 0.000000e+00 3.750000e+00 5.500000e+00
      vertex 8.400455e-01 3.135091e+00 6.000000e+00
      vertex 9.705715e-01 3.622222e+00 5.500000e+00
    endloop
  endfacet
  facet normal -6.800722e-01 -1.822248e-01 7.101379e-01
    outer loop
      vertex -3.622222e+00 -9.705715e-01 5.500000e+00
      vertex -3.245686e+00 0.000000e+00 6.000000e+00
      vertex -3.750000e+00 0.000000e+00 5.500000e+00
    endloop
  endfacet
  facet normal -7.040626e-01 -8.377675e-17 7.101379e-01
    outer loop
      vertex -3.245686e+00 0.000000e+00 6.000000e+00
      vertex -3.622222e+00 -9.705715e-01 5.500000e+00
      vertex -3.135091e+00 -8.400452e-01 6.000000e+00
    endloop
  endfacet
  facet normal 6.097361e-01 3.520313e-01 -7.101379e-01
    outer loop
      vertex 3.247595e+00 1.875000e+00 5.000000e-01
      vertex 3.135091e+00 8.400455e-01 0.000000e+00
      vertex 2.810846e+00 1.622843e+00 0.000000e+00
    endloop
  endfacet
  facet normal 6.800722e-01 1.822248e-01 -7.101379e-01
    outer loop
      vertex 3.135091e+00 8.400455e-01 0.000000e+00
      vertex 3.247595e+00 1.875000e+00 5.000000e-01
      vertex 3.622222e+00 9.705715e-01 5.000000e-01
    endloop
  endfacet
  facet normal -6.097361e-01 -3.520313e-01 7.101379e-01
    outer loop
      vertex -3.247595e+00 -1.875000e+00 5.500000e+00
      vertex -3.135091e+00 -8.400452e-01 6.000000e+00
      vertex -3.622222e+00 -9.705715e-01 5.500000e+00
    endloop
  endfacet
  facet normal -6.800722e-01 -1.822248e-01 7.101379e-01
    outer loop
      vertex -3.135091e+00 -8.400452e-01 6.000000e+00
      vertex -3.247595e+00 -1.875000e+00 5.500000e+00
      vertex -2.810846e+00 -1.622843e+00 6.000000e+00
    endloop
  endfacet
  facet normal 7.040626e-01 1.005321e-16 7.101379e-01
    outer loop
      vertex 3.245686e+00 0.000000e+00 6.000000e+00
      vertex 3.622222e+00 9.705715e-01 5.500000e+00
      vertex 3.135091e+00 8.400455e-01 6.000000e+00
    endloop
  endfacet
  facet normal 6.800722e-01 1.822248e-01 7.101379e-01
    outer loop
      vertex 3.622222e+00 9.705715e-01 5.500000e+00
      vertex 3.245686e+00 0.000000e+00 6.000000e+00
      vertex 3.750000e+00 0.000000e+00 5.500000e+00
    endloop
  endfacet
  facet normal 3.520313e-01 6.097361e-01 7.101379e-01
    outer loop
      vertex 1.622843e+00 2.810846e+00 6.000000e+00
      vertex 9.705715e-01 3.622222e+00 5.500000e+00
      vertex 8.400455e-01 3.135091e+00 6.000000e+00
    endloop
  endfacet
  facet normal 1.822248e-01 6.800722e-01 7.101379e-01
    outer loop
      vertex 9.705715e-01 3.622222e+00 5.500000e+00
      vertex 1.622843e+00 2.810846e+00 6.000000e+00
      vertex 1.875000e+00 3.247595e+00 5.500000e+00
    endloop
  endfacet
  facet normal -4.978474e-01 -4.978474e-01 -7.101379e-01
    outer loop
      vertex -2.295046e+00 -2.295046e+00 0.000000e+00
      vertex -1.875000e+00 -3.247595e+00 5.000000e-01
      vertex -2.651650e+00 -2.651650e+00 5.000000e-01
    endloop
  endfacet
  facet normal -3.520313e-01 -6.097361e-01 -7.101379e-01
    outer loop
      vertex -1.875000e+00 -3.247595e+00 5.000000e-01
      vertex -2.295046e+00 -2.295046e+00 0.000000e+00
      vertex -1.622843e+00 -2.810846e+00 0.000000e+00
    endloop
  endfacet
  facet normal -6.097361e-01 3.520313e-01 -7.101379e-01
    outer loop
      vertex -3.247595e+00 1.875000e+00 5.000000e-01
      vertex -3.135091e+00 8.400455e-01 0.000000e+00
      vertex -3.622222e+00 9.705715e-01 5.000000e-01
    endloop
  endfacet
  facet normal -6.800722e-01 1.822248e-01 -7.101379e-01
    outer loop
      vertex -3.135091e+00 8.400455e-01 0.000000e+00
      vertex -3.247595e+00 1.875000e+00 5.000000e-01
      vertex -2.810846e+00 1.622843e+00 0.000000e+00
    endloop
  endfacet
  facet normal 4.715002e-17 7.040626e-01 -7.101379e-01
    outer loop
      vertex 0.000000e+00 3.750000e+00 5.000000e-01
      vertex -8.400452e-01 3.135091e+00 0.000000e+00
      vertex -9.705715e-01 3.622222e+00 5.000000e-01
    endloop
  endfacet
  facet normal -1.822248e-01 6.800722e-01 -7.101379e-01
    outer loop
      vertex -8.400452e-01 3.135091e+00 0.000000e+00
      vertex 0.000000e+00 3.750000e+00 5.000000e-01
      vertex 0.000000e+00 3.245686e+00 0.000000e+00
    endloop
  endfacet
  facet normal 6.800722e-01 -1.822248e-01 7.101379e-01
    outer loop
      vertex 3.622222e+00 -9.705715e-01 5.500000e+00
      vertex 3.245686e+00 0.000000e+00 6.000000e+00
      vertex 3.135091e+00 -8.400452e-01 6.000000e+00
    endloop
  endfacet
  facet normal 7.040626e-01 1.005321e-16 7.101379e-01
    outer loop
      vertex 3.245686e+00 0.000000e+00 6.000000e+00
      vertex 3.622222e+00 -9.705715e-01 5.500000e+00
      vertex 3.750000e+00 0.000000e+00 5.500000e+00
    endloop
  endfacet
  facet normal -3.520313e-01 6.097361e-01 -7.101379e-01
    outer loop
      vertex -1.875000e+00 3.247595e+00 5.000000e-01
      vertex -2.295046e+00 2.295046e+00 0.000000e+00
      vertex -2.651650e+00 2.651650e+00 5.000000e-01
    endloop
  endfacet
  facet normal -4.978474e-01 4.978474e-01 -7.101379e-01
    outer loop
      vertex -2.295046e+00 2.295046e+00 0.000000e+00
      vertex -1.875000e+00 3.247595e+00 5.000000e-01
      vertex -1.622843e+00 2.810846e+00 0.000000e+00
    endloop
  endfacet
  facet normal -1.822248e-01 6.800722e-01 -7.101379e-01
    outer loop
      vertex -9.705715e-01 3.622222e+00 5.000000e-01
      vertex -1.622843e+00 2.810846e+00 0.000000e+00
      vertex -1.875000e+00 3.247595e+00 5.000000e-01
    endloop
  endfacet
  facet normal -3.520313e-01 6.097361e-01 -7.101379e-01
    outer loop
      vertex -1.622843e+00 2.810846e+00 0.000000e+00
      vertex -9.705715e-01 3.622222e+00 5.000000e-01
      vertex -8.400452e-01 3.135091e+00 0.000000e+00
    endloop
  endfacet
  facet normal 1.822248e-01 6.800722e-01 -7.101379e-01
    outer loop
      vertex 9.705715e-01 3.622222e+00 5.000000e-01
      vertex 1.622843e+00 2.810846e+00 0.000000e+00
      vertex 8.400455e-01 3.135091e+00 0.000000e+00
    endloop
  endfacet
  facet normal 3.520313e-01 6.097361e-01 -7.101379e-01
    outer loop
      vertex 1.622843e+00 2.810846e+00 0.000000e+00
      vertex 9.705715e-01 3.622222e+00 5.000000e-01
      vertex 1.875000e+00 3.247595e+00 5.000000e-01
    endloop
  endfacet
  facet normal 6.097361e-01 3.520313e-01 7.101379e-01
    outer loop
      vertex 2.810846e+00 1.622843e+00 6.000000e+00
      vertex 2.651650e+00 2.651650e+00 5.500000e+00
      vertex 2.295046e+00 2.295046e+00 6.000000e+00
    endloop
  endfacet
  facet normal 4.978474e-01 4.978474e-01 7.101379e-01
    outer loop
      vertex 2.651650e+00 2.651650e+00 5.500000e+00
      vertex 2.810846e+00 1.622843e+00 6.000000e+00
      vertex 3.247595e+00 1.875000e+00 5.500000e+00
    endloop
  endfacet
  facet normal -6.097361e-01 -3.520313e-01 -7.101379e-01
    outer loop
      vertex -2.810846e+00 -1.622843e+00 0.000000e+00
      vertex -2.651650e+00 -2.651650e+00 5.000000e-01
      vertex -3.247595e+00 -1.875000e+00 5.000000e-01
    endloop
  endfacet
  facet normal -4.978474e-01 -4.978474e-01 -7.101379e-01
    outer loop
      vertex -2.651650e+00 -2.651650e+00 5.000000e-01
      vertex -2.810846e+00 -1.622843e+00 0.000000e+00
      vertex -2.295046e+00 -2.295046e+00 0.000000e+00
    endloop
  endfacet
  facet normal -4.978474e-01 -4.978474e-01 7.101379e-01
    outer loop
      vertex -2.651650e+00 -2.651650e+00 5.500000e+00
      vertex -2.810846e+00 -1.622843e+00 6.000000e+00
      vertex -3.247595e+00 -1.875000e+00 5.500000e+00
    endloop
  endfacet
  facet normal -6.097361e-01 -3.520313e-01 7.101379e-01
    outer loop
      vertex -2.810846e+00 -1.622843e+00 6.000000e+00
      vertex -2.651650e+00 -2.651650e+00 5.500000e+00
      vertex -2.295046e+00 -2.295046e+00 6.000000e+00
    endloop
  endfacet
  facet normal 4.978474e-01 -4.978474e-01 7.101379e-01
    outer loop
      vertex 2.651650e+00 -2.651650e+00 5.500000e+00
      vertex 2.810846e+00 -1.622843e+00 6.000000e+00
      vertex 2.295046e+00 -2.295046e+00 6.000000e+00
    endloop
  endfacet
  facet normal 6.097361e-01 -3.520313e-01 7.101379e-01
    outer loop
      vertex 2.810846e+00 -1.622843e+00 6.000000e+00
      vertex 2.651650e+00 -2.651650e+00 5.500000e+00
      vertex 3.247595e+00 -1.875000e+00 5.500000e+00
    endloop
  endfacet
  facet normal 4.978474e-01 4.978474e-01 7.101379e-01
    outer loop
      vertex 2.295046e+00 2.295046e+00 6.000000e+00
      vertex 1.875000e+00 3.247595e+00 5.500000e+00
      vertex 1.622843e+00 2.810846e+00 6.000000e+00
    endloop
  endfacet
  facet normal 3.520313e-01 6.097361e-01 7.101379e-01
    outer loop
      vertex 1.875000e+00 3.247595e+00 5.500000e+00
      vertex 2.295046e+00 2.295046e+00 6.000000e+00
      vertex 2.651650e+00 2.651650e+00 5.500000e+00
    endloop
  endfacet
  facet normal -6.800722e-01 1.822248e-01 7.101379e-01
    outer loop
      vertex -3.135091e+00 8.400455e-01 6.000000e+00
      vertex -3.247595e+00 1.875000e+00 5.500000e+00
      vertex -3.622222e+00 9.705715e-01 5.500000e+00
    endloop
  endfacet
  facet normal -6.097361e-01 3.520313e-01 7.101379e-01
    outer loop
      vertex -3.247595e+00 1.875000e+00 5.500000e+00
      vertex -3.135091e+00 8.400455e-01 6.000000e+00
      vertex -2.810846e+00 1.622843e+00 6.000000e+00
    endloop
  endfacet
  facet normal -6.097361e-01 3.520313e-01 7.101379e-01
    outer loop
      vertex -2.810846e+00 1.622843e+00 6.000000e+00
      vertex -2.651650e+00 2.651650e+00 5.500000e+00
      vertex -3.247595e+00 1.875000e+00 5.500000e+00
    endloop
  endfacet
  facet normal -4.978474e-01 4.978474e-01 7.101379e-01
    outer loop
      vertex -2.651650e+00 2.651650e+00 5.500000e+00
      vertex -2.810846e+00 1.622843e+00 6.000000e+00
      vertex -2.295046e+00 2.295046e+00 6.000000e+00
    endloop
  endfacet
  facet normal -4.978474e-01 4.978474e-01 -7.101379e-01
    outer loop
      vertex -2.651650e+00 2.651650e+00 5.000000e-01
      vertex -2.810846e+00 1.622843e+00 0.000000e+00
      vertex -3.247595e+00 1.875000e+00 5.000000e-01
    endloop
  endfacet
  facet normal -6.097361e-01 3.520313e-01 -7.101379e-01
    outer loop
      vertex -2.810846e+00 1.622843e+00 0.000000e+00
      vertex -2.651650e+00 2.651650e+00 5.000000e-01
      vertex -2.295046e+00 2.295046e+00 0.000000e+00
    endloop
  endfacet
  facet normal -4.978474e-01 4.978474e-01 7.101379e-01
    outer loop
      vertex -2.295046e+00 2.295046e+00 6.000000e+00
      vertex -1.875000e+00 3.247595e+00 5.500000e+00
      vertex -2.651650e+00 2.651650e+00 5.500000e+00
    endloop
  endfacet
  facet normal -3.520313e-01 6.097361e-01 7.101379e-01
    outer loop
      vertex -1.875000e+00 3.247595e+00 5.500000e+00
      vertex -2.295046e+00 2.295046e+00 6.000000e+00
      vertex -1.622843e+00 2.810846e+00 6.000000e+00
    endloop
  endfacet
  facet normal -3.520313e-01 6.097361e-01 7.101379e-01
    outer loop
      vertex -1.622843e+00 2.810846e+00 6.000000e+00
      vertex -9.705715e-01 3.622222e+00 5.500000e+00
      vertex -1.875000e+00 3.247595e+00 5.500000e+00
    endloop
  endfacet
  facet normal -1.822248e-01 6.800722e-01 7.101379e-01
    outer loop
      vertex -9.705715e-01 3.622222e+00 5.500000e+00
      vertex -1.622843e+00 2.810846e+00 6.000000e+00
      vertex -8.400452e-01 3.135091e+00 6.000000e+00
    endloop
  endfacet
  facet normal -1.414501e-16 -7.040626e-01 7.101379e-01
    outer loop
      vertex 0.000000e+00 -3.750000e+00 5.500000e+00
      vertex -8.400452e-01 -3.135091e+00 6.000000e+00
      vertex -9.705715e-01 -3.622222e+00 5.500000e+00
    endloop
  endfacet
  facet normal -1.822248e-01 -6.800722e-01 7.101379e-01
    outer loop
      vertex -8.400452e-01 -3.135091e+00 6.000000e+00
      vertex 0.000000e+00 -3.750000e+00 5.500000e+00
      vertex 0.000000e+00 -3.245686e+00 6.000000e+00
    endloop
  endfacet
  facet normal 1.822248e-01 -6.800722e-01 7.101379e-01
    outer loop
      vertex 9.705715e-01 -3.622222e+00 5.500000e+00
      vertex 1.622843e+00 -2.810846e+00 6.000000e+00
      vertex 8.400455e-01 -3.135091e+00 6.000000e+00
    endloop
  endfacet
  facet normal 3.520313e-01 -6.097361e-01 7.101379e-01
    outer loop
      vertex 1.622843e+00 -2.810846e+00 6.000000e+00
      vertex 9.705715e-01 -3.622222e+00 5.500000e+00
      vertex 1.875000e+00 -3.247595e+00 5.500000e+00
    endloop
  endfacet
  facet normal -1.822248e-01 6.800722e-01 7.101379e-01
    outer loop
      vertex -8.400452e-01 3.135091e+00 6.000000e+00
      vertex 0.000000e+00 3.750000e+00 5.500000e+00
      vertex -9.705715e-01 3.622222e+00 5.500000e+00
    endloop
  endfacet
  facet normal 5.658003e-17 7.040626e-01 7.101379e-01
    outer loop
      vertex 0.000000e+00 3.750000e+00 5.500000e+00
      vertex -8.400452e-01 3.135091e+00 6.000000e+00
      vertex 0.000000e+00 3.245686e+00 6.000000e+00
    endloop
  endfacet
  facet normal 1.822248e-01 6.800722e-01 -7.101379e-01
    outer loop
      vertex 9.705715e-01 3.622222e+00 5.000000e-01
      vertex 0.000000e+00 3.245686e+00 0.000000e+00
      vertex 0.000000e+00 3.750000e+00 5.000000e-01
    endloop
  endfacet
  facet normal 5.864372e-17 7.040626e-01 -7.101379e-01
    outer loop
      vertex 0.000000e+00 3.245686e+00 0.000000e+00
      vertex 9.705715e-01 3.622222e+00 5.000000e-01
      vertex 8.400455e-01 3.135091e+00 0.000000e+00
    endloop
  endfacet
  facet normal 3.520313e-01 -6.097361e-01 -7.101379e-01
    outer loop
      vertex 1.622843e+00 -2.810846e+00 0.000000e+00
      vertex 9.705715e-01 -3.622222e+00 5.000000e-01
      vertex 8.400455e-01 -3.135091e+00 0.000000e+00
    endloop
  endfacet
  facet normal 1.822248e-01 -6.800722e-01 -7.101379e-01
    outer loop
      vertex 9.705715e-01 -3.622222e+00 5.000000e-01
      vertex 1.622843e+00 -2.810846e+00 0.000000e+00
      vertex 1.875000e+00 -3.247595e+00 5.000000e-01
    endloop
  endfacet
  facet normal 4.978474e-01 -4.978474e-01 -7.101379e-01
    outer loop
      vertex 2.295046e+00 -2.295046e+00 0.000000e+00
      vertex 1.875000e+00 -3.247595e+00 5.000000e-01
      vertex 1.622843e+00 -2.810846e+00 0.000000e+00
    endloop
  endfacet
  facet normal 3.520313e-01 -6.097361e-01 -7.101379e-01
    outer loop
      vertex 1.875000e+00 -3.247595e+00 5.000000e-01
      vertex 2.295046e+00 -2.295046e+00 0.000000e+00
      vertex 2.651650e+00 -2.651650e+00 5.000000e-01
    endloop
  endfacet
  facet normal 7.040626e-01 6.702140e-17 -7.101379e-01
    outer loop
      vertex 3.245686e+00 0.000000e+00 0.000000e+00
      vertex 3.622222e+00 -9.705715e-01 5.000000e-01
      vertex 3.135091e+00 -8.400452e-01 0.000000e+00
    endloop
  endfacet
  facet normal 6.800722e-01 -1.822248e-01 -7.101379e-01
    outer loop
      vertex 3.622222e+00 -9.705715e-01 5.000000e-01
      vertex 3.245686e+00 0.000000e+00 0.000000e+00
      vertex 3.750000e+00 0.000000e+00 5.000000e-01
    endloop
  endfacet
  facet normal 6.800722e-01 -1.822248e-01 -7.101379e-01
    outer loop
      vertex 3.135091e+00 -8.400452e-01 0.000000e+00
      vertex 3.247595e+00 -1.875000e+00 5.000000e-01
      vertex 2.810846e+00 -1.622843e+00 0.000000e+00
    endloop
  endfacet
  facet normal 6.097361e-01 -3.520313e-01 -7.101379e-01
    outer loop
      vertex 3.247595e+00 -1.875000e+00 5.000000e-01
      vertex 3.135091e+00 -8.400452e-01 0.000000e+00
      vertex 3.622222e+00 -9.705715e-01 5.000000e-01
    endloop
  endfacet
  facet normal 6.097361e-01 -3.520313e-01 -7.101379e-01
    outer loop
      vertex 2.810846e+00 -1.622843e+00 0.000000e+00
      vertex 2.651650e+00 -2.651650e+00 5.000000e-01
      vertex 2.295046e+00 -2.295046e+00 0.000000e+00
    endloop
  endfacet
  facet normal 4.978474e-01 -4.978474e-01 -7.101379e-01
    outer loop
      vertex 2.651650e+00 -2.651650e+00 5.000000e-01
      vertex 2.810846e+00 -1.622843e+00 0.000000e+00
      vertex 3.247595e+00 -1.875000e+00 5.000000e-01
    endloop
  endfacet
  facet normal 1.822248e-01 -6.800722e-01 -7.101379e-01
    outer loop
      vertex 8.400455e-01 -3.135091e+00 0.000000e+00
      vertex 0.000000e+00 -3.750000e+00 5.000000e-01
      vertex 0.000000e+00 -3.245686e+00 0.000000e+00
    endloop
  endfacet
  facet normal -1.320201e-16 -7.040626e-01 -7.101379e-01
    outer loop
      vertex 0.000000e+00 -3.750000e+00 5.000000e-01
      vertex 8.400455e-01 -3.135091e+00 0.000000e+00
      vertex 9.705715e-01 -3.622222e+00 5.000000e-01
    endloop
  endfacet
endsolid Default
